<svg width="1024" height="688" viewBox="0 0 1024 688" fill="none" xmlns="http://www.w3.org/2000/svg">
<path fill-rule="evenodd" clip-rule="evenodd" d="M248.919 5.25C248.875 8.138 248.388 19.05 247.837 29.5C247.286 39.95 246.622 67.899 246.36 91.61L245.885 134.719L242.442 138.056C239.385 141.019 239 141.976 239 146.613C239 149.484 238.519 151.994 237.932 152.189C237.224 152.425 236.706 161.815 236.397 180.023C236.141 195.135 235.517 209.525 235.011 212C234.505 214.475 233.793 220.325 233.429 225C233.065 229.675 232.184 234.639 231.472 236.03C230.759 237.422 229.853 242.26 229.459 246.78C228.78 254.56 228.615 255 226.371 255C224.272 255 224 255.458 224 259C224 262.333 223.667 263 222 263C220.381 263 220 263.667 220 266.5C220 269.917 219.905 270 216 270H212V276V282H207H202V290.594C202 298.315 201.799 299.24 200.022 299.705C198.152 300.193 198.028 301.25 197.772 318.861L197.5 337.5L193.25 337.807L189 338.115V380.057V422H186H183V554.5C183 642.167 183.338 687 184 687C184.662 687 185 642.5 185 555.5V424H207.5H230V555.5C230 642.5 230.338 687 231 687C231.662 687 232 642.167 232 554.5V422H229H226V380V338H213H200V320V302H248.5H297V320V338H284H271V380V422H268.5H266V554.5C266 642.167 266.338 687 267 687C267.662 687 268 642.5 268 555.5V424H290H312V555.5C312 671.865 312.173 687 313.504 687C314.836 687 314.978 671.895 314.754 554.75L314.5 422.5L311.25 422.187L308 421.873V379.994V338.115L303.75 337.807L299.5 337.5L299.86 319.185C300.211 301.347 300.167 300.856 298.148 300.328C296.282 299.841 296.046 298.922 295.787 291.143L295.5 282.5L290.75 282.195L286 281.89V275.945V270H282C278.112 270 278 269.904 278 266.573C278 264.105 277.51 263.052 276.25 262.809C274.983 262.564 274.5 261.51 274.5 258.986C274.5 256.188 274.079 255.44 272.364 255.195C269.942 254.85 269 251.689 269 243.909C269 241.246 268.368 237.59 267.595 235.784C265.068 229.879 263.626 212.012 263.292 182.5C263.006 157.203 262.758 153.346 261.348 152.291C260.126 151.378 259.854 149.99 260.235 146.611C260.693 142.544 260.435 141.845 257.39 138.894L254.042 135.649L253.632 94.074C253.406 71.208 252.764 43.05 252.205 31.5C251.646 19.95 251.146 8.138 251.094 5.25C251.042 2.362 250.55 0 250 0C249.45 0 248.964 2.362 248.919 5.25ZM251.5 95C251.5 131.798 251.381 134.495 249.75 134.81C248.107 135.126 248 132.697 248 95C248 57.303 248.107 54.874 249.75 55.19C251.381 55.505 251.5 58.202 251.5 95ZM255.195 139.687C257.423 141.821 258 143.265 258 146.706C258 151.397 258.318 151.273 251 149.438C250.175 149.231 247.85 149.442 245.834 149.907C242.576 150.658 242.105 150.515 241.598 148.626C240.45 144.35 241.06 142.127 244.077 139.589C248.031 136.261 251.653 136.293 255.195 139.687ZM259.485 153.988C260.374 154.726 261 156.89 261 159.229C261 162.645 260.75 163.106 259.25 162.46C256.174 161.135 245.196 160.736 242.045 161.834L239 162.896V158.531C239 154.695 239.333 154.038 241.75 153.101C245.278 151.735 257.507 152.346 259.485 153.988ZM257.481 164.428L260.898 165.855L261.321 189.678C261.798 216.5 263.115 231.738 265.429 237.218C266.355 239.41 267 243.822 267 247.968V255H248.915H230.829L231.517 247.25C231.896 242.988 232.867 238.454 233.675 237.175C234.561 235.773 235.481 230.416 235.994 223.675C236.461 217.529 237.329 211.233 237.922 209.685C238.568 207.997 239 198.521 239 186.018V165.167L241.75 164.162C245.828 162.673 253.595 162.804 257.481 164.428ZM509.656 217.75C509.306 228.063 508.728 248.425 508.372 263C508.015 277.575 507.288 290.625 506.755 292C506.223 293.375 505.205 301.058 504.493 309.073C503.782 317.088 502.474 325.782 501.588 328.393C500.701 331.004 499.488 337.721 498.891 343.32C498.293 348.919 496.949 356.073 495.902 359.218C494.856 362.364 494 367.171 494 369.902C494 373.761 493.279 376.028 490.762 380.076C488.028 384.475 487.466 386.445 487.147 392.757C486.871 398.219 486.291 400.709 484.99 402.01C482.803 404.197 481 412.205 481 419.733C481 423.531 480.273 426.858 478.77 429.934C477.129 433.295 476.375 437.14 475.914 444.5C475.57 450 474.798 456.075 474.198 458C473.599 459.925 472.928 464.111 472.708 467.303C472.341 472.636 472.023 473.3 468.78 475.503C466.84 476.822 464.97 478.635 464.626 479.532C464.282 480.429 464 499.127 464 521.082V561H459.667C454.794 561 453.522 561.719 455.078 563.594C456.893 565.781 454.357 569.177 451.183 568.81L448.5 568.5L447.745 499C447.33 460.775 446.655 420.089 446.245 408.587L445.5 387.674L441.5 386.559C437.54 385.455 437.495 385.389 437 379.876C436.373 372.894 435.187 371.477 428.7 369.957C422.141 368.42 421.361 367.775 420.543 363.214C420.177 361.171 418.553 353.811 416.935 346.857C413.524 332.196 413.409 330.538 411.86 273.213C410.824 234.864 410.105 225.532 408.546 230.187C408.304 230.909 407.395 253.775 406.526 281C404.819 334.496 405.463 328.404 398.127 360.499L396.298 368.498L391.002 369.674C383.963 371.237 382.026 373.352 381.314 380.247L380.738 385.829L376.521 386.89L372.304 387.952L371.657 419.226C370.515 474.458 368.698 686.032 369.36 686.694C369.712 687.045 370.211 687.122 370.469 686.864C370.728 686.606 371.662 619.818 372.546 538.447C373.43 457.076 374.457 390.229 374.827 389.899C375.6 389.208 406.017 382 408.157 382C409.668 382 408.951 394.942 404.058 456C402.934 470.025 401.544 488.475 400.97 497C400.396 505.525 399.072 523.075 398.029 536C396.986 548.925 395.853 563.775 395.511 569C395.17 574.225 394.036 588.85 392.992 601.5C391.949 614.15 390.827 628.55 390.501 633.5C389.489 648.85 387.021 680.334 386.562 683.75C386.266 685.956 386.538 687 387.41 687C388.776 687 389.672 678.339 392.528 637.5C393.336 625.95 394.666 608.4 395.483 598.5C396.832 582.162 402.216 511.31 403.499 493C403.788 488.875 404.696 477.4 405.516 467.5C407.357 445.267 409.966 408.525 409.986 404.55C409.994 402.904 410.363 402.02 410.822 402.55C411.275 403.073 412.887 417.9 414.406 435.5C415.925 453.1 418.247 479.875 419.566 495C420.886 510.125 422.199 525.65 422.485 529.5C422.771 533.35 424.111 549.1 425.463 564.5C426.814 579.9 429.066 605.775 430.466 622C431.866 638.225 433.69 659.343 434.518 668.929C435.346 678.514 436.243 686.577 436.512 686.845C438.511 688.844 438.288 685.091 432.51 619.5C431.202 604.65 429.847 588.675 429.498 584C429.15 579.325 428.232 568.75 427.459 560.5C426.685 552.25 425.587 539.65 425.018 532.5C423.187 509.478 419.029 461.122 416.936 438.5C413.476 401.09 412.321 382 413.517 382C414.108 382 419.07 383.176 424.545 384.613C430.02 386.051 436.525 387.738 439 388.363L443.5 389.5L444.149 420.5C444.506 437.55 445.293 492.225 445.898 542C446.503 591.775 447.275 644.763 447.613 659.75C448.195 685.568 448.327 687 450.114 687C452.261 687 452.107 692.846 452.001 615.23C451.945 574.619 452.051 571.921 453.721 571.335C454.699 570.991 456.277 569.763 457.228 568.605C458.869 566.605 458.957 569.517 458.978 626.75C458.992 666.235 459.345 687 460 687C460.55 687 461 685.65 461 684V681H472.5C487.53 681 487.738 679.159 472.75 678.783L461.5 678.5V674.5V670.5L472.75 670.217C478.938 670.062 484 669.514 484 669C484 668.486 478.938 667.938 472.75 667.783L461.5 667.5L461.19 663.75L460.879 660H472.44C482.049 660 484 659.747 484 658.5C484 657.254 482.056 657 472.5 657H461V653V649H472.5C487.53 649 487.738 647.159 472.75 646.783L461.5 646.5V642.5V638.5L472.75 638.217C478.938 638.062 484 637.514 484 637C484 636.486 478.938 635.938 472.75 635.783L461.5 635.5L461.19 631.75L460.879 628H472.523C481.392 628 484.068 627.702 483.752 626.75C483.461 625.873 480.005 625.416 472.169 625.217L461 624.934V620.967V617H472.5C487.53 617 487.738 615.159 472.75 614.783L461.5 614.5L461.192 610.783L460.883 607.067L472.11 606.783C479.823 606.589 483.463 606.119 483.741 605.283C484.038 604.387 481.169 603.992 472.822 603.783L461.5 603.5V597.5V591.5L472.75 591.217L484 590.934L483.985 577.717C483.976 570.448 483.639 564.017 483.235 563.427C482.831 562.837 481.6 561.953 480.5 561.463C478.984 560.787 480.074 560.441 485 560.035L491.5 559.5L492 522.5C492.482 486.834 492.579 485.352 494.691 481.405C503.15 465.597 522.608 465.271 531.728 480.784L534.5 485.5L534.796 522.75L535.091 560L541.796 560.04C548.31 560.079 548.422 560.122 545.75 561.572L543 563.064V577.032V591H554H565V597.5V604H553.917C545.495 604 542.933 604.3 543.248 605.25C543.537 606.121 546.896 606.586 554.331 606.784L565 607.068V611.034V615H554C547.333 615 543 615.394 543 616C543 616.606 547.333 617 554 617H565V621V625H554C544.889 625 543 625.258 543 626.5C543 627.745 544.92 628 554.276 628H565.553L565.171 632L564.79 636H553.895C547.298 636 543 636.395 543 637C543 637.605 547.278 638 553.833 638C559.792 638 564.868 638.202 565.115 638.448C565.361 638.694 565.389 640.719 565.176 642.948L564.79 647H553.895C547.298 647 543 647.395 543 648C543 648.606 547.333 649 554 649H565V653V657H554C544.889 657 543 657.258 543 658.5C543 659.745 544.92 660 554.276 660H565.553L565.171 664L564.79 668H553.895C547.298 668 543 668.395 543 669C543 669.606 547.333 670 554 670H565V674.5V679H554C547.333 679 543 679.394 543 680C543 680.606 547.333 681 554 681H565V684C565 686 565.5 687 566.5 687C567.708 687 568 685.444 568 679C568 672.556 568.292 671 569.5 671C570.69 671 571 672.444 571 678V685H575.5C577.975 685 580 685.45 580 686C580 686.55 580.481 687 581.07 687C581.658 687 581.995 685.987 581.82 684.75C581.554 682.88 580.783 682.448 577.25 682.193L573 681.885V675.462C573 669.444 572.842 668.998 570.5 668.411L568 667.783V617.422V567.06L571 564.842C572.65 563.622 574 562.259 574 561.812C574 561.365 570.18 561 565.511 561H557.022L556.761 519.752L556.5 478.503L552.753 476.502C549.132 474.567 549.004 474.315 548.959 469C548.934 465.975 548.474 461.475 547.938 459C547.402 456.525 546.321 449.678 545.535 443.784C544.749 437.89 543.543 432.04 542.854 430.784C542.165 429.528 541.341 423.984 541.021 418.464C540.559 410.463 540.011 407.825 538.322 405.453C537.035 403.645 535.951 400.127 535.56 396.489C534.434 386.019 533.998 384.276 531.631 380.788C530.017 378.41 528.976 374.75 528.197 368.715C527.582 363.952 526.197 357.905 525.119 355.277C523.804 352.073 523.001 347.206 522.68 340.5C522.407 334.8 521.515 328.78 520.606 326.5C518.034 320.051 516.054 295.443 514.45 250C513.624 226.625 512.708 205.588 512.413 203.25C511.288 194.326 510.268 199.691 509.656 217.75ZM512.901 279.75C512.982 287.35 512.732 289 511.5 289C510.274 289 510.001 287.308 510.006 279.75C510.009 274.663 510.342 266.675 510.745 262L511.478 253.5L512.14 262C512.504 266.675 512.846 274.663 512.901 279.75ZM272 260V263H249H226V260V257H249H272V260ZM276 267.5V270H249.559C223.014 270 221.114 269.752 222.38 266.452C222.848 265.233 227.197 265 249.469 265H276V267.5ZM284 277V282H249H214V277V272H249H284V277ZM410.9 316C410.997 324.85 411.656 334.074 412.436 337.5C413.187 340.8 414.971 348.631 416.401 354.901C417.83 361.172 418.999 366.572 418.999 366.901C418.998 367.231 414.498 367.5 408.998 367.5C403.499 367.5 398.999 367.405 399 367.289C399.001 366.469 405.182 339.789 406.016 337C406.592 335.075 407.477 320.9 407.983 305.5C408.49 290.1 409.004 277.275 409.127 277C409.592 275.959 410.736 301.127 410.9 316ZM293.5 292V299.5L248.75 299.76L204 300.021V292V283.979L248.75 284.24L293.5 284.5V292ZM514.025 293.565C514.561 294.976 515.033 299.138 515.073 302.815C515.113 306.492 515.482 311.863 515.894 314.75C516.305 317.637 516.317 320 515.92 320C515.524 320 514.645 317.637 513.968 314.75C511.481 304.154 509.665 303.827 508.425 313.755C507.72 319.398 505.983 321.972 506.026 317.309C506.086 310.702 508.038 294.797 509.011 292.979C510.483 290.229 512.862 290.508 514.025 293.565ZM512 316.5C512 317.875 511.55 319 511 319C509.883 319 509.629 315.704 510.667 314.667C511.769 313.564 512 313.882 512 316.5ZM235 321C235 322.1 235.45 323 236 323C236.55 323 237 322.1 237 321C237 319.9 236.55 319 236 319C235.45 319 235 319.9 235 321ZM247 321C247 322.1 247.45 323 248 323C248.55 323 249 322.1 249 321C249 319.9 248.55 319 248 319C247.45 319 247 319.9 247 321ZM261 321C261 322.1 261.45 323 262 323C262.55 323 263 322.1 263 321C263 319.9 262.55 319 262 319C261.45 319 261 319.9 261 321ZM517.571 326.137C520.122 331.07 522.178 350.846 520 349.5C519.45 349.16 518.971 346.321 518.936 343.191L518.872 337.5L517.216 340.832L515.56 344.163L514.03 339.59C513.188 337.074 512.05 334.915 511.5 334.791C510.95 334.668 510.05 336.654 509.5 339.206C508.564 343.548 507 346.693 507 344.232C507 343.626 506.524 341.879 505.943 340.349C505.096 338.122 504.7 337.86 503.958 339.034C503.448 339.84 503.017 342.075 503 344C502.983 345.925 502.533 348.175 502 349C500.489 351.338 500.787 342.668 502.495 334.609C503.298 330.819 504.666 326.633 505.536 325.305C508.801 320.322 514.778 320.735 517.571 326.137ZM235 329C235 330.1 235.45 331 236 331C236.55 331 237 330.1 237 329C237 327.9 236.55 327 236 327C235.45 327 235 327.9 235 329ZM247 329C247 330.1 247.45 331 248 331C248.55 331 249 330.1 249 329C249 327.9 248.55 327 248 327C247.45 327 247 327.9 247 329ZM261 328.941C261 330.073 261.45 331 262 331C262.55 331 263 330.352 263 329.559C263 328.766 262.55 327.84 262 327.5C261.45 327.16 261 327.809 261 328.941ZM224 381V422H207.5H191V381V340H207.5H224V381ZM306 381V422H289.5H273V381V340H289.5H306V381ZM513.22 344.044C513.676 347.153 512.493 348.914 510.99 347.363C510.015 346.357 510.868 341 512.003 341C512.427 341 512.974 342.37 513.22 344.044ZM505.604 348.729C504.588 349.746 503.749 348.215 504.583 346.866C505.213 345.846 505.449 345.846 505.787 346.862C506.019 347.557 505.936 348.397 505.604 348.729ZM197 382C197 404.667 197.352 417 198 417C198.648 417 199 404.667 199 382C199 359.333 198.648 347 198 347C197.352 347 197 359.333 197 382ZM216 382C216 404.667 216.352 417 217 417C217.648 417 218 404.667 218 382C218 359.333 217.648 347 217 347C216.352 347 216 359.333 216 382ZM279 382C279 404.667 279.352 417 280 417C280.648 417 281 404.667 281 382C281 359.333 280.648 347 280 347C279.352 347 279 359.333 279 382ZM298 382C298 404.667 298.352 417 299 417C299.648 417 300 404.667 300 382C300 359.333 299.648 347 299 347C298.352 347 298 359.333 298 382ZM519 352.866C522.955 355.655 525.271 361.482 525.776 369.914C526.327 379.122 524.398 378.76 523.233 369.437C522.428 362.99 521.11 362.217 519.431 367.205C517.744 372.215 516.347 371.581 514.352 364.898C513.333 361.488 512.052 358.653 511.505 358.599C510.958 358.544 509.802 361.173 508.937 364.439C508.072 367.706 506.905 370.532 506.345 370.718C505.785 370.905 504.598 369.206 503.709 366.941C502.82 364.677 501.674 363.083 501.163 363.399C500.652 363.715 499.937 366.346 499.575 369.245C498.209 380.179 495.214 378.794 496.367 367.762C497.595 356.015 504.09 349.314 513 350.599C514.925 350.877 517.625 351.897 519 352.866ZM235 364C235 365.1 235.45 366 236 366C236.55 366 237 365.1 237 364C237 362.9 236.55 362 236 362C235.45 362 235 362.9 235 364ZM247 364C247 365.1 247.45 366 248 366C248.55 366 249 365.1 249 364C249 362.9 248.55 362 248 362C247.45 362 247 362.9 247 364ZM513 366.418C513 367.198 513.273 368.548 513.607 369.418C514.042 370.552 513.617 371 512.107 371C509.988 371 509.483 369.512 510.607 366.582C511.362 364.615 513 364.503 513 366.418ZM426.5 371.686L433.5 373.5L434.394 378.772C434.886 381.672 435.111 384.218 434.894 384.43C434.677 384.642 429.142 383.467 422.593 381.82L410.685 378.824L399.093 381.419C392.717 382.846 386.417 384.307 385.092 384.665C382.729 385.304 382.697 385.227 383.354 380.432C383.722 377.745 384.657 374.914 385.431 374.141C386.205 373.367 390.587 371.899 395.169 370.879C405.033 368.684 416.004 368.967 426.5 371.686ZM502.905 372.854C501.428 373.362 500.677 372.332 501.525 370.96C502.063 370.09 502.468 370.137 503.093 371.143C503.588 371.94 503.511 372.646 502.905 372.854ZM235 373C235 374.1 235.45 375 236 375C236.55 375 237 374.1 237 373C237 371.9 236.55 371 236 371C235.45 371 235 371.9 235 373ZM518.428 375.533C526.292 379.264 531.535 388.029 532.664 399.329C533.345 406.149 532.185 406.324 530.337 399.68C529.317 396.01 529.089 395.775 528.471 397.75C527.275 401.572 526.301 400.26 525.74 394.068C524.962 385.487 524.213 385.05 520.731 391.147C517.309 397.14 517.374 397.186 514.459 386.737C513.574 383.568 512.47 381.21 512.004 381.497C511.539 381.785 510.348 385.166 509.358 389.01C508.367 392.855 507.284 396 506.949 396C506.615 396 505.288 393.75 504 391C502.712 388.25 501.344 386 500.96 386C500.188 386 499.028 392.025 499.011 396.128C499.005 397.573 498.325 399.315 497.5 400C496.233 401.052 496 400.847 496 398.681C496 397.272 495.601 395.872 495.114 395.57C494.163 394.982 493.036 398.195 493.014 401.559C493.006 402.691 492.294 404.491 491.432 405.559C489.982 407.353 489.902 406.955 490.371 400.282C491.697 381.412 505.381 369.342 518.428 375.533ZM493.978 380.75C493.966 381.163 493.038 382.625 491.918 384L489.88 386.5L491.465 383.25C492.972 380.162 494.026 379.113 493.978 380.75ZM513.393 390.582C514.578 393.67 514.069 396.16 512.321 395.823C511.398 395.645 510.723 395.163 510.821 394.75C510.92 394.337 511 392.875 511 391.5C511 388.707 512.459 388.147 513.393 390.582ZM235 394.941C235 396.073 235.45 397 236 397C236.55 397 237 396.352 237 395.559C237 394.766 236.55 393.84 236 393.5C235.45 393.16 235 393.809 235 394.941ZM247 395C247 396.1 247.45 397 248 397C248.55 397 249 396.1 249 395C249 393.9 248.55 393 248 393C247.45 393 247 393.9 247 395ZM503.396 394.59C504.076 396.363 503.378 398 501.941 398C501.423 398 501 396.875 501 395.5C501 392.703 502.459 392.149 503.396 394.59ZM524 395.5C524 397.971 522.645 398.853 521.556 397.09C520.833 395.921 521.941 393 523.107 393C523.598 393 524 394.125 524 395.5ZM518.752 399.168C522.1 400.011 524.828 401.748 528.567 405.418C534.353 411.097 537.312 417.649 538.545 427.511C539.229 432.989 539.154 433.373 537.646 432.121C536.577 431.234 536 429.221 536 426.378C536 421.787 534.648 420.731 532.512 423.653C530.688 426.147 529.187 424.493 528.493 419.227C527.491 411.61 526.887 409 526.129 409C525.737 409 524.182 411.517 522.673 414.593C520.378 419.275 519.691 419.989 518.465 418.971C517.659 418.302 517 417.317 517 416.781C517 414.498 513.785 405 513.012 405C512.547 405 511.089 408.234 509.771 412.188C508.453 416.141 506.909 419.53 506.339 419.72C505.769 419.91 504.08 417.342 502.587 414.014C501.093 410.685 499.503 408.189 499.054 408.466C498.605 408.744 497.918 412.383 497.527 416.552C496.752 424.826 495.365 426.546 491.957 423.461C489.438 421.182 489.068 421.631 488.33 427.864C487.995 430.688 487.08 433.786 486.295 434.749C485.034 436.298 484.925 435.806 485.358 430.5C486.354 418.279 491.187 408.394 498.875 402.851C505.373 398.165 510.787 397.162 518.752 399.168ZM261 403C261 404.1 261.45 405 262 405C262.55 405 263 404.1 263 403C263 401.9 262.55 401 262 401C261.45 401 261 401.9 261 403ZM487.922 407.75C487.831 412.154 484.639 421.843 483.752 420.408C483.053 419.277 484.448 406.702 485.453 405.077C486.825 402.857 487.997 404.126 487.922 407.75ZM537.535 409.067C538.407 410.754 538.95 412.892 538.741 413.817C538.485 414.952 537.814 414.239 536.681 411.628C534.037 405.538 534.693 403.572 537.535 409.067ZM514.474 415.75C515.113 418.78 514.977 419 512.472 419C510.426 419 509.932 418.621 510.397 417.407C510.733 416.531 511.289 414.698 511.631 413.334C512.381 410.344 513.543 411.331 514.474 415.75ZM501.446 421.663C499.018 423.439 498.631 422.779 499.472 418.298L500.184 414.503L501.715 417.425C503.124 420.114 503.102 420.452 501.446 421.663ZM526.492 422.819C526.328 422.995 525.285 422.57 524.172 421.875C522.248 420.674 522.228 420.463 523.773 417.556L525.396 414.5L526.093 418.5C526.476 420.7 526.655 422.644 526.492 422.819ZM524.793 425.164C535.533 430.29 543.026 442.496 542.978 454.788L542.956 460.5L541.026 458C539.807 456.421 538.986 453.531 538.798 450.153L538.5 444.806L535.76 446.968C532.325 449.677 531.003 448.908 530.989 444.191C530.983 442.161 530.697 438.798 530.353 436.718C529.743 433.028 529.68 432.98 527.758 434.718C526.674 435.698 524.926 438.188 523.873 440.25C520.537 446.786 518.717 445.346 515.487 433.617C514.487 429.987 513.51 428.09 512.936 428.664C512.424 429.176 510.959 432.697 509.68 436.488C508.401 440.28 506.883 443.539 506.307 443.731C505.731 443.923 503.766 441.7 501.94 438.79C500.115 435.881 498.457 433.288 498.256 433.029C497.351 431.86 496.179 435.808 495.557 442.119C494.831 449.488 493.721 450.559 490.5 447C487.706 443.912 487.002 444.56 486.973 450.25C486.951 454.581 486.43 456.113 484 459C480.628 463.006 480.528 462.537 482.456 451.722C485.099 436.9 494.409 425.741 506.951 422.364C512.804 420.788 517.008 421.447 524.793 425.164ZM492 426.941C492 427.459 491.55 428.16 491 428.5C490.45 428.84 490 428.416 490 427.559C490 426.702 490.45 426 491 426C491.55 426 492 426.423 492 426.941ZM483.971 436.35C484.427 436.817 483.98 439.067 482.979 441.35C481.977 443.632 480.836 447.247 480.443 449.382C479.847 452.617 479.563 452.971 478.741 451.501C477.199 448.747 478.406 435.998 480.586 432L482.495 428.5L482.819 432C482.997 433.925 483.515 435.882 483.971 436.35ZM194 431.941C194 432.459 194.45 433.16 195 433.5C195.55 433.84 196 433.416 196 432.559C196 431.702 195.55 431 195 431C194.45 431 194 431.423 194 431.941ZM302 432C302 432.55 302.9 433 304 433C305.1 433 306 432.55 306 432C306 431.45 305.1 431 304 431C302.9 431 302 431.45 302 432ZM220.25 432.689C221.213 432.941 222.787 432.941 223.75 432.689C224.713 432.438 223.925 432.232 222 432.232C220.075 432.232 219.287 432.438 220.25 432.689ZM542.486 437.5L543.114 440.5L541.592 438C539.901 435.22 539.422 432.009 540.929 433.55C541.44 434.072 542.141 435.85 542.486 437.5ZM514.654 439L515.722 443H512.754C510.45 443 509.923 442.644 510.397 441.407C510.733 440.531 511.28 438.731 511.613 437.407C512.484 433.936 513.436 434.434 514.654 439ZM500.515 441.029C502.281 444.444 501.96 445.516 498.937 446.306C497.36 446.719 496.985 446.481 497.421 445.345C497.739 444.515 498 442.523 498 440.918C498 437.216 498.556 437.24 500.515 441.029ZM190 440.5C190 441.325 190.45 442 191 442C191.55 442 192 441.325 192 440.5C192 439.675 191.55 439 191 439C190.45 439 190 439.675 190 440.5ZM194 440.5C194 441.325 194.45 442 195 442C195.55 442 196 441.325 196 440.5C196 439.675 195.55 439 195 439C194.45 439 194 439.675 194 440.5ZM203 440.5C203 441.325 203.45 442 204 442C204.55 442 205 441.325 205 440.5C205 439.675 204.55 439 204 439C203.45 439 203 439.675 203 440.5ZM207 440.5C207 441.325 207.45 442 208 442C208.55 442 209 441.325 209 440.5C209 439.675 208.55 439 208 439C207.45 439 207 439.675 207 440.5ZM210 440.5C210 441.325 210.45 442 211 442C211.55 442 212 441.325 212 440.5C212 439.675 211.55 439 211 439C210.45 439 210 439.675 210 440.5ZM219 440.5C219 441.325 219.45 442 220 442C220.55 442 221 441.325 221 440.5C221 439.675 220.55 439 220 439C219.45 439 219 439.675 219 440.5ZM223.583 439.866C223.152 440.563 223.07 441.403 223.4 441.733C224.295 442.628 225.271 441.312 224.787 439.862C224.449 438.846 224.213 438.846 223.583 439.866ZM272 440.5C272 441.325 272.45 442 273 442C273.55 442 274 441.325 274 440.5C274 439.675 273.55 439 273 439C272.45 439 272 439.675 272 440.5ZM277 440.5C277 441.325 277.45 442 278 442C278.55 442 279 441.325 279 440.5C279 439.675 278.55 439 278 439C277.45 439 277 439.675 277 440.5ZM285 440.5C285 441.325 285.45 442 286 442C286.55 442 287 441.325 287 440.5C287 439.675 286.55 439 286 439C285.45 439 285 439.675 285 440.5ZM289 440.5C289 441.325 289.45 442 290 442C290.55 442 291 441.325 291 440.5C291 439.675 290.55 439 290 439C289.45 439 289 439.675 289 440.5ZM293 440.5C293 441.325 293.45 442 294 442C294.55 442 295 441.325 295 440.5C295 439.675 294.55 439 294 439C293.45 439 293 439.675 293 440.5ZM529 442.5C529 446.034 527.841 446.819 525.145 445.11C524.028 444.403 524.092 443.789 525.51 441.626C527.856 438.044 529 438.33 529 442.5ZM238 442.941C238 444.073 238.45 445 239 445C239.55 445 240 444.352 240 443.559C240 442.766 239.55 441.84 239 441.5C238.45 441.16 238 441.809 238 442.941ZM249.446 442.087C249.077 442.685 249.275 443.675 249.887 444.287C250.704 445.104 251 444.815 251 443.2C251 440.785 250.481 440.413 249.446 442.087ZM258 442.941C258 444.073 258.45 445 259 445C259.55 445 260 444.352 260 443.559C260 442.766 259.55 441.84 259 441.5C258.45 441.16 258 441.809 258 442.941ZM235.079 443.583C235.127 444.748 235.364 444.985 235.683 444.188C235.972 443.466 235.936 442.603 235.604 442.271C235.272 441.939 235.036 442.529 235.079 443.583ZM261 442.941C261 443.459 261.45 444.16 262 444.5C262.55 444.84 263 444.416 263 443.559C263 442.702 262.55 442 262 442C261.45 442 261 442.423 261 442.941ZM523.568 447.472C530.315 449.486 538.302 456.674 542.055 464.109C547.734 475.36 548 477.843 548 519.71V558H542.5H537L536.99 522.25C536.981 486.733 536.965 486.467 534.613 481.5C525.089 461.389 499.35 462.418 491.266 483.234C489.865 486.84 489.55 492.952 489.226 522.75L488.843 558H483.39H477.937L478.218 516.25L478.5 474.5L481.665 467.82C488.156 454.119 499.435 446 511.978 446C515.641 446 520.856 446.663 523.568 447.472ZM536.683 451.188C536.364 451.985 536.127 451.748 536.079 450.583C536.036 449.529 536.272 448.939 536.604 449.271C536.936 449.603 536.972 450.466 536.683 451.188ZM491 450.941C491 451.459 490.55 452.16 490 452.5C489.45 452.84 489 452.416 489 451.559C489 450.702 489.45 450 490 450C490.55 450 491 450.423 491 450.941ZM503.789 458.535C503.143 466.326 502.115 466.963 496.299 463.175C493.66 461.456 491.361 460.455 491.191 460.951C491.021 461.447 491.286 464.073 491.78 466.787C492.432 470.379 492.336 472.188 491.426 473.432C490.275 475.006 489.934 475.017 487.145 473.575C483.451 471.665 482.85 472.434 484.038 477.555C484.541 479.725 484.963 483.862 484.976 486.75C485.006 493.411 486.51 493.513 487.917 486.95C489.825 478.052 494.403 472.007 502.5 467.691C508.115 464.699 518.897 464.713 524.595 467.721C532.321 471.799 538.934 481.698 538.978 489.25C539.018 496.008 540.689 493.176 541.339 485.25C541.689 480.987 542.258 476.487 542.604 475.25C543.099 473.481 542.824 473 541.317 473C540.262 473 538.857 473.543 538.193 474.207C537.25 475.15 536.622 475.05 535.324 473.752C533.852 472.281 533.806 471.444 534.92 466.467C535.612 463.375 535.913 460.58 535.589 460.255C535.264 459.931 533.191 461.119 530.982 462.895C525.773 467.081 523.006 466.488 522.986 461.183C522.971 456.983 522.068 452.999 521.133 453.002C520.785 453.003 519.222 455.026 517.661 457.498C516.099 459.97 514.454 462.22 514.005 462.497C513.556 462.774 511.572 460.751 509.596 458.001C507.62 455.25 505.608 453 505.125 453C504.643 453 504.041 455.491 503.789 458.535ZM478.985 462.685C478.993 464.987 478.438 468.137 477.75 469.685C476.838 471.738 476.365 484.415 476 516.5L475.5 560.5L470.75 560.805L466 561.11V521.637C466 499.926 466.281 481.433 466.623 480.539C466.966 479.646 468.926 478.058 470.979 477.011L474.711 475.107L475.239 466.646C475.53 461.993 476.101 457.646 476.509 456.986C477.71 455.042 478.967 457.934 478.985 462.685ZM246 459C246 460.867 246.267 461.133 247.2 460.2C248.133 459.267 248.133 458.733 247.2 457.8C246.267 456.867 246 457.133 246 459ZM249.446 458.087C249.077 458.685 249.275 459.675 249.887 460.287C250.704 461.104 251 460.815 251 459.2C251 456.785 250.481 456.413 249.446 458.087ZM508.393 460.582C509.21 462.71 509.211 462.705 507.5 463.362C506.416 463.777 506 463.252 506 461.469C506 458.701 507.463 458.159 508.393 460.582ZM521 461.5C521 464.213 520.91 464.286 518.629 463.411C517.382 462.933 517.318 462.464 518.288 460.911C519.928 458.284 521 458.517 521 461.5ZM545.93 462.75C545.873 465.758 545.689 466.104 545 464.5C543.806 461.721 543.806 459 545 459C545.55 459 545.968 460.688 545.93 462.75ZM190 464.441C190 465.234 190.45 466.16 191 466.5C191.55 466.84 192 466.191 192 465.059C192 463.927 191.55 463 191 463C190.45 463 190 463.648 190 464.441ZM194 464.441C194 465.234 194.45 466.16 195 466.5C195.55 466.84 196 466.191 196 465.059C196 463.927 195.55 463 195 463C194.45 463 194 463.648 194 464.441ZM203 465C203 466.1 203.45 467 204 467C204.55 467 205 466.1 205 465C205 463.9 204.55 463 204 463C203.45 463 203 463.9 203 465ZM207 465.059C207 466.191 207.45 466.84 208 466.5C208.55 466.16 209 465.234 209 464.441C209 463.648 208.55 463 208 463C207.45 463 207 463.927 207 465.059ZM210 465C210 466.1 210.45 467 211 467C211.55 467 212 466.1 212 465C212 463.9 211.55 463 211 463C210.45 463 210 463.9 210 465ZM272 464.441C272 465.234 272.45 466.16 273 466.5C273.55 466.84 274 466.191 274 465.059C274 463.927 273.55 463 273 463C272.45 463 272 463.648 272 464.441ZM277 465.059C277 466.191 277.45 466.84 278 466.5C278.55 466.16 279 465.234 279 464.441C279 463.648 278.55 463 278 463C277.45 463 277 463.927 277 465.059ZM285 465C285 466.1 285.45 467 286 467C286.55 467 287 466.1 287 465C287 463.9 286.55 463 286 463C285.45 463 285 463.9 285 465ZM289 465.059C289 466.191 289.45 466.84 290 466.5C290.55 466.16 291 465.234 291 464.441C291 463.648 290.55 463 290 463C289.45 463 289 463.927 289 465.059ZM293 465C293 466.1 293.45 467 294 467C294.55 467 295 466.1 295 465C295 463.9 294.55 463 294 463C293.45 463 293 463.9 293 465ZM303.5 464C303.101 464.646 303.224 465.624 303.774 466.174C304.441 466.841 305.016 466.783 305.5 466C305.899 465.354 305.776 464.376 305.226 463.826C304.559 463.159 303.984 463.217 303.5 464ZM496.869 466.342C498.093 467.816 497.409 469 495.333 469C494.6 469 494 468.1 494 467C494 464.693 495.26 464.404 496.869 466.342ZM532.607 466.582C532.273 467.452 532 468.632 532 469.204C532 469.831 531.398 469.745 530.488 468.99C529.337 468.035 529.247 467.407 530.11 466.367C531.663 464.496 533.352 464.641 532.607 466.582ZM235.079 474.583C235.127 475.748 235.364 475.985 235.683 475.188C235.972 474.466 235.936 473.603 235.604 473.271C235.272 472.939 235.036 473.529 235.079 474.583ZM238 474.5C238 475.325 238.45 476 239 476C239.55 476 240 475.325 240 474.5C240 473.675 239.55 473 239 473C238.45 473 238 473.675 238 474.5ZM507 477.5C507 478.991 507.431 479.852 508 479.5C508.55 479.16 509 478.26 509 477.5C509 476.74 508.55 475.84 508 475.5C507.431 475.148 507 476.009 507 477.5ZM519 477.5C519 478.991 519.431 479.852 520 479.5C520.55 479.16 521 478.26 521 477.5C521 476.74 520.55 475.84 520 475.5C519.431 475.148 519 476.009 519 477.5ZM487.947 479.1C486.577 481.659 486 481.491 486 478.531C486 476.761 486.419 476.224 487.482 476.631C488.603 477.062 488.716 477.662 487.947 479.1ZM540 478C540 479.1 539.55 480 539 480C538.45 480 538 479.1 538 478C538 476.9 538.45 476 539 476C539.55 476 540 476.9 540 478ZM552.889 478.91C554.041 479.64 554.251 486.668 554.119 520.145C553.964 559.603 553.597 564.131 550.9 559.872C549.84 558.199 549.694 477.994 550.75 478.015C551.163 478.024 552.125 478.426 552.889 478.91ZM704.021 487.72L696 497.441V526.084V554.728L691.269 555.377C687.319 555.918 685.667 556.884 681.269 561.228L676 566.432V585.196V603.959L672 606C668.171 607.953 668 608.247 668 612.846C668 618.23 666.614 620.003 659.25 624.039L655 626.368V642.529C655 656.916 654.799 658.872 653.171 660.345C652.165 661.255 651.05 662 650.692 662C650.334 662 649.92 652.888 649.771 641.75L649.5 621.5L628.806 621.23L608.112 620.96L603.076 628.73L598.04 636.5L598.02 661.75C598.007 677.93 598.359 687 599 687C599.64 687 600 678.126 600 662.379V637.758L604.675 630.379L609.349 623H628.175H647V643.759C647 663.436 646.896 664.584 645 665.768C643.217 666.882 643 668.1 643 677.008C643 685.223 643.267 687 644.5 687C645.729 687 646.005 685.237 646.028 677.25L646.057 667.5L651.528 664.188L657 660.877V644.109V627.342L661.999 625C664.749 623.712 667.744 621.835 668.654 620.829C669.899 619.454 671.762 619 676.155 619C683.143 619 684.021 620.761 677.25 621.195L672.5 621.5L671.879 636.5C671.538 644.75 671.2 653.638 671.129 656.25L671 661H666H661V674C661 682 661.385 687 662 687C662.611 687 663 682.333 663 675V663H667.871H672.742L673.446 654L674.15 645H705.575H737V654V663H741H745V675C745 682.333 745.389 687 746 687C746.615 687 747 682.02 747 674.06V661.121L743.25 660.81L739.5 660.5L739.289 653.5C739.078 646.527 737.319 628.53 736.429 624.25C736.013 622.247 735.36 622 730.481 622H725V618.622C725 616.765 724.354 614.709 723.564 614.053C722.775 613.398 721.827 611.488 721.458 609.81C721.079 608.084 719.999 606.551 718.975 606.283C717.666 605.941 716.974 604.444 716.487 600.906C716.116 598.209 715.405 595.75 714.906 595.442C714.382 595.118 714 570.698 714 537.441V480H748.5H783V536.435V592.871L776.5 598.613C770.956 603.51 770 604.844 770 607.678C770 610.333 769.599 611 768 611C766.9 611 766 611.45 766 612C766 612.55 766.9 613 768 613C769.733 613 770 613.667 770 618C770 622.333 769.733 623 768 623C766.9 623 766 623.45 766 624C766 624.55 766.9 625 768 625C769.111 625 770 625.667 770 626.5C770 627.333 769.111 628 768 628C766.9 628 766 628.45 766 629C766 629.55 766.9 630 768 630C769.333 630 770 630.667 770 632C770 633.333 769.333 634 768 634C766.9 634 766 634.45 766 635C766 635.55 766.9 636 768 636C769.733 636 770 636.667 770 641C770 645.333 769.733 646 768 646C766.9 646 766 646.45 766 647C766 647.55 766.925 648 768.055 648C769.882 648 770.076 648.526 769.805 652.75C769.545 656.803 769.17 657.547 767.25 657.82C764.189 658.254 764.389 660 767.5 660C769.056 660 770 660.567 770 661.5C770 662.433 769.056 663 767.5 663C765.944 663 765 663.567 765 664.5C765 665.433 765.944 666 767.5 666H770V676.5C770 682.833 770.397 687 771 687C771.65 687 772.004 672.742 772.013 646.25L772.025 605.5L777.442 600.75C780.421 598.138 783.115 596 783.429 596C783.743 596 784 616.475 784 641.5C784 681.278 784.189 687 785.5 687C786.812 687 787 681.111 787 640V593H834.5H882V640C882 670.965 882.344 687 883.01 687C883.679 687 883.932 670.727 883.76 638.75L883.5 590.5L834.25 590.241L785 589.981V533.991V478H748.521H712.042L704.021 487.72ZM219 481.5C219 482.325 219.45 483 220 483C220.55 483 221 482.325 221 481.5C221 480.675 220.55 480 220 480C219.45 480 219 480.675 219 481.5ZM246 483.5C246 484.325 246.45 485 247 485C247.55 485 248 484.325 248 483.5C248 482.675 247.55 482 247 482C246.45 482 246 482.675 246 483.5ZM250 483.441C250 484.298 250.45 485 251 485C251.55 485 252 484.577 252 484.059C252 483.541 251.55 482.84 251 482.5C250.45 482.16 250 482.584 250 483.441ZM259.079 483.583C259.127 484.748 259.364 484.985 259.683 484.188C259.972 483.466 259.936 482.603 259.604 482.271C259.272 481.939 259.036 482.529 259.079 483.583ZM712 538.487V592.856L697.25 593.264C689.138 593.488 681.487 594.023 680.25 594.452L678 595.233V581.329V567.425L682.75 562.767C686.95 558.648 688.078 558.074 692.5 557.804L697.5 557.5L698 527.937L698.5 498.375L704.5 490.786C707.8 486.612 710.837 483.404 711.25 483.658C711.663 483.911 712 508.584 712 538.487ZM285 488.5C285 489.325 285.45 490 286 490C286.55 490 287 489.325 287 488.5C287 487.675 286.55 487 286 487C285.45 487 285 487.675 285 488.5ZM289 488.5C289 489.325 289.45 490 290 490C290.55 490 291 489.325 291 488.5C291 487.675 290.55 487 290 487C289.45 487 289 487.675 289 488.5ZM293 488.5C293 489.325 293.45 490 294 490C294.55 490 295 489.325 295 488.5C295 487.675 294.55 487 294 487C293.45 487 293 487.675 293 488.5ZM498.548 488.25C498.129 489.212 498.129 490.788 498.548 491.75C499.273 493.417 499.329 493.417 499.728 491.75C499.958 490.788 499.958 489.212 499.728 488.25C499.329 486.583 499.273 486.583 498.548 488.25ZM527 489.941C527 491.623 527.45 493 528 493C528.55 493 529 491.902 529 490.559C529 489.216 528.55 487.84 528 487.5C527.417 487.139 527 488.156 527 489.941ZM219 489C219 489.55 219.45 490 220 490C220.55 490 221 489.55 221 489C221 488.45 220.55 488 220 488C219.45 488 219 488.45 219 489ZM510 490.559C510 492.01 510.433 492.851 511 492.5C511.55 492.16 512 491.009 512 489.941C512 488.873 511.55 488 511 488C510.45 488 510 489.152 510 490.559ZM515 490.5C515 491.875 515.45 493 516 493C516.55 493 517 491.875 517 490.5C517 489.125 516.55 488 516 488C515.45 488 515 489.125 515 490.5ZM718 491C718 491.644 728.5 492 747.5 492C766.5 492 777 491.644 777 491C777 490.356 766.5 490 747.5 490C728.5 490 718 490.356 718 491ZM956.722 495.274L950.945 500.5L950.972 557.766L951 615.031L944 620.138L937 625.246V637.123C937 648.971 936.994 649 934.616 649C932.591 649 931.848 647.984 929.685 642.25C923.698 626.377 915.266 606.589 914.362 606.287C913.823 606.108 912.198 609.232 910.75 613.231C899.719 643.68 896.806 650.591 893.955 653.073L891 655.646V668.716C891 679.411 890.727 681.891 889.5 682.362C887.842 682.998 887.41 687 889 687C889.55 687 890 686.527 890 685.949C890 684.861 894.605 682.639 899.305 681.459C901.799 680.834 902 681.015 902 683.892C902 685.601 902.45 687 903 687C903.55 687 904 685.425 904 683.5V680H922.5H941V683.5C941 685.425 941.45 687 942 687C942.55 687 943 685.158 943 682.906C943 679.654 942.589 678.705 941 678.29C939.066 677.784 939.001 676.932 939.015 652.633C939.024 638.81 939.361 627.036 939.765 626.468C940.786 625.035 949.215 619 950.197 619C950.639 619 951 634.3 951 653C951 675 951.353 687 952 687C952.659 687 953.011 655.395 953.033 594.25L953.066 501.5L957.533 497.68L962 493.86L962.092 565.68C962.143 605.181 962.105 648.638 962.009 662.25C961.888 679.385 962.166 687 962.912 687C963.674 687 964.065 658.449 964.245 589.75L964.5 492.5L994.25 492.235C1012.94 492.069 1024 491.604 1024 490.985C1024 490.359 1012.79 490.009 993.25 490.024L962.5 490.049L956.722 495.274ZM203 496.5C203 497.325 203.45 498 204 498C204.55 498 205 497.325 205 496.5C205 495.675 204.55 495 204 495C203.45 495 203 495.675 203 496.5ZM207 496.559C207 497.416 207.45 497.84 208 497.5C208.55 497.16 209 496.459 209 495.941C209 495.423 208.55 495 208 495C207.45 495 207 495.702 207 496.559ZM210 496.5C210 497.325 210.45 498 211 498C211.55 498 212 497.325 212 496.5C212 495.675 211.55 495 211 495C210.45 495 210 495.675 210 496.5ZM219 496.5C219 497.325 219.45 498 220 498C220.55 498 221 497.325 221 496.5C221 495.675 220.55 495 220 495C219.45 495 219 495.675 219 496.5ZM223 496.5C223 497.325 223.45 498 224 498C224.55 498 225 497.325 225 496.5C225 495.675 224.55 495 224 495C223.45 495 223 495.675 223 496.5ZM235.079 498.583C235.127 499.748 235.364 499.985 235.683 499.188C235.972 498.466 235.936 497.603 235.604 497.271C235.272 496.939 235.036 497.529 235.079 498.583ZM238 498.441C238 499.298 238.45 500 239 500C239.55 500 240 499.577 240 499.059C240 498.541 239.55 497.84 239 497.5C238.45 497.16 238 497.584 238 498.441ZM498 500.5C498 501.875 498.45 503 499 503C499.55 503 500 501.875 500 500.5C500 499.125 499.55 498 499 498C498.45 498 498 499.125 498 500.5ZM510 500.5C510 501.875 510.45 503 511 503C511.55 503 512 501.875 512 500.5C512 499.125 511.55 498 511 498C510.45 498 510 499.125 510 500.5ZM515 500.5C515 501.875 515.45 503 516 503C516.55 503 517 501.875 517 500.5C517 499.125 516.55 498 516 498C515.45 498 515 499.125 515 500.5ZM527 500.5C527 501.875 527.45 503 528 503C528.55 503 529 501.875 529 500.5C529 499.125 528.55 498 528 498C527.45 498 527 499.125 527 500.5ZM302 506.559C302 507.416 302.45 507.84 303 507.5C303.55 507.16 304 506.459 304 505.941C304 505.423 303.55 505 303 505C302.45 505 302 505.702 302 506.559ZM235.079 507.583C235.127 508.748 235.364 508.985 235.683 508.188C235.972 507.466 235.936 506.603 235.604 506.271C235.272 505.939 235.036 506.529 235.079 507.583ZM238 508C238 509.867 238.267 510.133 239.2 509.2C240.133 508.267 240.133 507.733 239.2 506.8C238.267 505.867 238 506.133 238 508ZM498 511.5C498 512.875 498.45 514 499 514C499.55 514 500 512.875 500 511.5C500 510.125 499.55 509 499 509C498.45 509 498 510.125 498 511.5ZM510 511.5C510 512.875 510.45 514 511 514C511.55 514 512 512.875 512 511.5C512 510.125 511.55 509 511 509C510.45 509 510 510.125 510 511.5ZM515 511.5C515 512.875 515.45 514 516 514C516.55 514 517 512.875 517 511.5C517 510.125 516.55 509 516 509C515.45 509 515 510.125 515 511.5ZM527 511.5C527 512.875 527.45 514 528 514C528.55 514 529 512.875 529 511.5C529 510.125 528.55 509 528 509C527.45 509 527 510.125 527 511.5ZM79.581 516.187C79.358 516.909 78.669 543.6 78.051 575.5C77.432 607.4 76.685 635.862 76.391 638.75C75.88 643.766 75.726 644 72.928 644H70V595.719V547.437L64.221 541.719L58.442 536H29.221C10.407 536 0 536.356 0 537C0 537.643 10 538 28 538H56V596.5V655H40.5H25V671C25 681 25.375 687 26 687C26.622 687 27 681.327 27 671.98V656.959L47.75 657.23L68.5 657.5L68.777 672.25C69.134 691.277 71 692.166 71 673.309C71 661.056 71.154 659.822 72.468 661.559C73.561 663.003 73.945 666.506 73.968 675.25C73.988 682.395 74.392 687 75 687C75.613 687 76 682.213 76 674.638C76 662.407 75.968 662.235 73 658.5C70.854 655.799 70 653.642 70 650.92C70 647.158 70.049 647.111 74.25 646.807L78.5 646.5L79.208 621C80.395 578.28 80.468 577.595 81.303 601.5C81.745 614.15 82.42 629.45 82.803 635.5L83.5 646.5L90.25 646.796L97 647.091V667.046C97 684.232 97.211 687 98.52 687C99.841 687 100.004 684.214 99.77 665.75L99.5 644.5L92.37 644.209L85.241 643.917L84.575 624.709C82.896 576.297 82.024 544.327 82.012 530.809C82.005 522.039 81.594 515.867 80.993 515.496C80.439 515.153 79.804 515.464 79.581 516.187ZM744 518C744 518.55 744.45 519 745 519C745.55 519 746 518.55 746 518C746 517.45 745.55 517 745 517C744.45 517 744 517.45 744 518ZM749 518C749 518.55 749.9 519 751 519C752.1 519 753 518.55 753 518C753 517.45 752.1 517 751 517C749.9 517 749 517.45 749 518ZM498.667 519.667C497.62 520.714 497.888 525 499 525C499.55 525 500 523.65 500 522C500 518.893 499.796 518.537 498.667 519.667ZM527 521.941C527 523.623 527.45 525 528 525C528.55 525 529 523.902 529 522.559C529 521.216 528.55 519.84 528 519.5C527.417 519.139 527 520.156 527 521.941ZM510 522.5C510 523.875 510.45 525 511 525C511.55 525 512 523.875 512 522.5C512 521.125 511.55 520 511 520C510.45 520 510 521.125 510 522.5ZM515 522.5C515 523.875 515.45 525 516 525C516.55 525 517 523.875 517 522.5C517 521.125 516.55 520 516 520C515.45 520 515 521.125 515 522.5ZM967.667 523.667C966.516 524.817 966.938 526 968.5 526C969.325 526 970 525.325 970 524.5C970 522.938 968.817 522.516 967.667 523.667ZM973.25 523.718C971.532 524.334 971.672 526 973.441 526C975.097 526 976.408 524.351 975.266 523.704C974.845 523.465 973.938 523.472 973.25 523.718ZM995.25 523.662C993.509 524.365 993.684 526 995.5 526C996.325 526 997 525.325 997 524.5C997 523.675 996.888 523.036 996.75 523.079C996.612 523.122 995.938 523.385 995.25 523.662ZM989 525C989 525.55 989.675 526 990.5 526C991.325 526 992 525.55 992 525C992 524.45 991.325 524 990.5 524C989.675 524 989 524.45 989 525ZM190.531 528.293C190.103 529.279 190.034 530.367 190.376 530.71C191.392 531.725 192.211 530.299 191.743 528.328C191.329 526.581 191.275 526.58 190.531 528.293ZM194.531 528.293C194.103 529.279 194.034 530.367 194.376 530.71C195.392 531.725 196.211 530.299 195.743 528.328C195.329 526.581 195.275 526.58 194.531 528.293ZM207 528.941C207 530.073 207.45 531 208 531C208.55 531 209 530.352 209 529.559C209 528.766 208.55 527.84 208 527.5C207.45 527.16 207 527.809 207 528.941ZM210 529C210 530.1 210.45 531 211 531C211.55 531 212 530.1 212 529C212 527.9 211.55 527 211 527C210.45 527 210 527.9 210 529ZM219.531 528.293C219.103 529.279 219.034 530.367 219.376 530.71C220.392 531.725 221.211 530.299 220.743 528.328C220.329 526.581 220.275 526.58 219.531 528.293ZM223.531 528.293C223.103 529.279 223.034 530.367 223.376 530.71C224.392 531.725 225.211 530.299 224.743 528.328C224.329 526.581 224.275 526.58 223.531 528.293ZM272.446 528.087C272.077 528.685 272.275 529.675 272.887 530.287C273.704 531.104 274 530.815 274 529.2C274 526.785 273.481 526.413 272.446 528.087ZM277 528.941C277 530.073 277.45 531 278 531C278.55 531 279 530.352 279 529.559C279 528.766 278.55 527.84 278 527.5C277.45 527.16 277 527.809 277 528.941ZM285 529C285 530.1 285.45 531 286 531C286.55 531 287 530.1 287 529C287 527.9 286.55 527 286 527C285.45 527 285 527.9 285 529ZM289 528.941C289 530.073 289.45 531 290 531C290.55 531 291 530.352 291 529.559C291 528.766 290.55 527.84 290 527.5C289.45 527.16 289 527.809 289 528.941ZM293 529C293 530.1 293.45 531 294 531C294.55 531 295 530.1 295 529C295 527.9 294.55 527 294 527C293.45 527 293 527.9 293 529ZM301.446 528.087C301.077 528.685 301.275 529.675 301.887 530.287C302.704 531.104 303 530.815 303 529.2C303 526.785 302.481 526.413 301.446 528.087ZM305 528.941C305 530.073 305.45 531 306 531C306.55 531 307 530.352 307 529.559C307 528.766 306.55 527.84 306 527.5C305.45 527.16 305 527.809 305 528.941ZM203 529.5C203 530.325 203.45 531 204 531C204.55 531 205 530.325 205 529.5C205 528.675 204.55 528 204 528C203.45 528 203 528.675 203 529.5ZM719 529C719 529.55 720.575 530 722.5 530C724.425 530 726 529.55 726 529C726 528.45 724.425 528 722.5 528C720.575 528 719 528.45 719 529ZM744.441 529.096C743.573 530.499 746.978 531.422 748.267 530.133C748.89 529.51 749.197 528.966 748.95 528.923C748.702 528.881 747.714 528.696 746.754 528.513C745.794 528.329 744.753 528.591 744.441 529.096ZM751.543 528.931C751.226 529.443 751.425 530.144 751.984 530.49C752.543 530.835 753 530.416 753 529.559C753 527.802 752.4 527.544 751.543 528.931ZM767 530C767 530.55 768.098 531 769.441 531C770.784 531 772.16 530.55 772.5 530C772.861 529.417 771.844 529 770.059 529C768.377 529 767 529.45 767 530ZM498 532.5C498 533.875 498.45 535 499 535C499.55 535 500 533.875 500 532.5C500 531.125 499.55 530 499 530C498.45 530 498 531.125 498 532.5ZM510 532.5C510 533.875 510.45 535 511 535C511.55 535 512 533.875 512 532.5C512 531.125 511.55 530 511 530C510.45 530 510 531.125 510 532.5ZM515 532.5C515 533.875 515.45 535 516 535C516.55 535 517 533.875 517 532.5C517 531.125 516.55 530 516 530C515.45 530 515 531.125 515 532.5ZM527 532.5C527 533.875 527.45 535 528 535C528.55 535 529 533.875 529 532.5C529 531.125 528.55 530 528 530C527.45 530 527 531.125 527 532.5ZM1002 531C1002 531.55 1002.45 532 1003 532C1003.55 532 1004 531.55 1004 531C1004 530.45 1003.55 530 1003 530C1002.45 530 1002 530.45 1002 531ZM237 532.5C237 533.325 237.45 534 238 534C238.55 534 239 533.325 239 532.5C239 531.675 238.55 531 238 531C237.45 531 237 531.675 237 532.5ZM246 532.5C246 533.325 246.45 534 247 534C247.55 534 248 533.325 248 532.5C248 531.675 247.55 531 247 531C246.45 531 246 531.675 246 532.5ZM250 532.5C250 533.325 250.45 534 251 534C251.55 534 252 533.325 252 532.5C252 531.675 251.55 531 251 531C250.45 531 250 531.675 250 532.5ZM259.079 532.583C259.127 533.748 259.364 533.985 259.683 533.188C259.972 532.466 259.936 531.603 259.604 531.271C259.272 530.939 259.036 531.529 259.079 532.583ZM999 539.5C999 540.325 999.45 541 1000 541C1000.55 541 1001 540.325 1001 539.5C1001 538.675 1000.55 538 1000 538C999.45 538 999 538.675 999 539.5ZM967 540C967 540.55 967.675 541 968.5 541C969.325 541 970 540.55 970 540C970 539.45 969.325 539 968.5 539C967.675 539 967 539.45 967 540ZM972 540C972 540.55 972.675 541 973.5 541C974.325 541 975 540.55 975 540C975 539.45 974.325 539 973.5 539C972.675 539 972 539.45 972 540ZM976 540C976 540.55 976.675 541 977.5 541C978.325 541 979 540.55 979 540C979 539.45 978.325 539 977.5 539C976.675 539 976 539.45 976 540ZM980 540C980 540.55 980.675 541 981.5 541C982.325 541 983 540.55 983 540C983 539.45 982.325 539 981.5 539C980.675 539 980 539.45 980 540ZM67.735 602L67.5 654.5L63.25 654.807L59 655.115L59.038 597.307L59.077 539.5L63.523 544.5L67.97 549.5L67.735 602ZM767 541C767 541.55 768.35 542 770 542C771.65 542 773 541.55 773 541C773 540.45 771.65 540 770 540C768.35 540 767 540.45 767 541ZM498 543.5C498 544.875 498.45 546 499 546C499.55 546 500 544.875 500 543.5C500 542.125 499.55 541 499 541C498.45 541 498 542.125 498 543.5ZM510 543.5C510 544.875 510.45 546 511 546C511.55 546 512 544.875 512 543.5C512 542.125 511.55 541 511 541C510.45 541 510 542.125 510 543.5ZM515 543.5C515 544.875 515.45 546 516 546C516.55 546 517 544.875 517 543.5C517 542.125 516.55 541 516 541C515.45 541 515 542.125 515 543.5ZM527 543.5C527 544.875 527.45 546 528 546C528.55 546 529 544.875 529 543.5C529 542.125 528.55 541 528 541C527.45 541 527 542.125 527 543.5ZM302.269 545.693C303.242 545.947 304.592 545.93 305.269 545.656C305.946 545.382 305.15 545.175 303.5 545.195C301.85 545.215 301.296 545.439 302.269 545.693ZM740 546C740 546.55 740.45 547 741 547C741.55 547 742 546.55 742 546C742 545.45 741.55 545 741 545C740.45 545 740 545.45 740 546ZM745 545.883C745 546.862 749.663 548.004 750.449 547.217C750.722 546.944 750.706 546.334 750.414 545.861C749.713 544.726 745 544.746 745 545.883ZM767 547C767 547.55 768.35 548 770 548C771.65 548 773 547.55 773 547C773 546.45 771.65 546 770 546C768.35 546 767 546.45 767 547ZM498 553.5C498 554.875 498.45 556 499 556C499.55 556 500 554.875 500 553.5C500 552.125 499.55 551 499 551C498.45 551 498 552.125 498 553.5ZM510 553.5C510 554.875 510.45 556 511 556C511.55 556 512 554.875 512 553.5C512 552.125 511.55 551 511 551C510.45 551 510 552.125 510 553.5ZM515 553.5C515 554.875 515.45 556 516 556C516.55 556 517 554.875 517 553.5C517 552.125 516.55 551 516 551C515.45 551 515 552.125 515 553.5ZM527 553.5C527 554.875 527.45 556 528 556C528.55 556 529 554.875 529 553.5C529 552.125 528.55 551 528 551C527.45 551 527 552.125 527 553.5ZM719 552C719 552.55 720.575 553 722.5 553C724.425 553 726 552.55 726 552C726 551.45 724.425 551 722.5 551C720.575 551 719 551.45 719 552ZM272 553.5C272 554.325 272.45 555 273 555C273.55 555 274 554.325 274 553.5C274 552.675 273.55 552 273 552C272.45 552 272 552.675 272 553.5ZM276.229 553.188C276.847 555.042 279 555.349 279 553.583C279 552.712 278.288 552 277.417 552C276.546 552 276.011 552.534 276.229 553.188ZM285 553.5C285 554.325 285.45 555 286 555C286.55 555 287 554.325 287 553.5C287 552.675 286.55 552 286 552C285.45 552 285 552.675 285 553.5ZM289 553.5C289 554.325 289.45 555 290 555C290.55 555 291 554.325 291 553.5C291 552.675 290.55 552 290 552C289.45 552 289 552.675 289 553.5ZM293 553.5C293 554.325 293.45 555 294 555C294.55 555 295 554.325 295 553.5C295 552.675 294.55 552 294 552C293.45 552 293 552.675 293 553.5ZM301 553.566C301 554.677 301.779 555.041 303.673 554.816C307.566 554.356 307.909 552 304.083 552C301.951 552 301 552.483 301 553.566ZM765 558C765 558.55 765.45 559 766 559C766.55 559 767 558.55 767 558C767 557.45 766.55 557 766 557C765.45 557 765 557.45 765 558ZM770 558C770 558.55 770.45 559 771 559C771.55 559 772 558.55 772 558C772 557.45 771.55 557 771 557C770.45 557 770 557.45 770 558ZM190.531 561.293C190.103 562.279 190.034 563.367 190.376 563.71C191.392 564.725 192.211 563.299 191.743 561.328C191.329 559.581 191.275 559.58 190.531 561.293ZM194.531 561.293C194.103 562.279 194.034 563.367 194.376 563.71C195.392 564.725 196.211 563.299 195.743 561.328C195.329 559.581 195.275 559.58 194.531 561.293ZM203 562C203 563.1 203.45 564 204 564C204.55 564 205 563.1 205 562C205 560.9 204.55 560 204 560C203.45 560 203 560.9 203 562ZM207 561.941C207 563.073 207.45 564 208 564C208.55 564 209 563.352 209 562.559C209 561.766 208.55 560.84 208 560.5C207.45 560.16 207 560.809 207 561.941ZM210 562C210 563.1 210.45 564 211 564C211.55 564 212 563.1 212 562C212 560.9 211.55 560 211 560C210.45 560 210 560.9 210 562ZM219.531 561.293C219.103 562.279 219.034 563.367 219.376 563.71C220.392 564.725 221.211 563.299 220.743 561.328C220.329 559.581 220.275 559.58 219.531 561.293ZM223.531 561.293C223.103 562.279 223.034 563.367 223.376 563.71C224.392 564.725 225.211 563.299 224.743 561.328C224.329 559.581 224.275 559.58 223.531 561.293ZM272 562.5C272 563.325 272.45 564 273 564C273.55 564 274 563.325 274 562.5C274 561.675 273.55 561 273 561C272.45 561 272 561.675 272 562.5ZM276.638 562.5C276.955 563.325 277.616 564 278.107 564C278.598 564 279 563.325 279 562.5C279 561.675 278.339 561 277.531 561C276.637 561 276.288 561.586 276.638 562.5ZM285 562.5C285 563.325 285.45 564 286 564C286.55 564 287 563.325 287 562.5C287 561.675 286.55 561 286 561C285.45 561 285 561.675 285 562.5ZM289 562.5C289 563.325 289.45 564 290 564C290.55 564 291 563.325 291 562.5C291 561.675 290.55 561 290 561C289.45 561 289 561.675 289 562.5ZM293 562.5C293 563.325 293.45 564 294 564C294.55 564 295 563.325 295 562.5C295 561.675 294.55 561 294 561C293.45 561 293 561.675 293 562.5ZM304 562.5C304 563.325 304.45 564 305 564C305.55 564 306 563.325 306 562.5C306 561.675 305.55 561 305 561C304.45 561 304 561.675 304 562.5ZM510 564.5C510 565.875 510.45 567 511 567C511.55 567 512 565.875 512 564.5C512 563.125 511.55 562 511 562C510.45 562 510 563.125 510 564.5ZM515 564.5C515 565.875 515.45 567 516 567C516.55 567 517 565.875 517 564.5C517 563.125 516.55 562 516 562C515.45 562 515 563.125 515 564.5ZM237 564.5C237 565.325 237.45 566 238 566C238.55 566 239 565.325 239 564.5C239 563.675 238.55 563 238 563C237.45 563 237 563.675 237 564.5ZM246 564.5C246 565.325 246.45 566 247 566C247.55 566 248 565.325 248 564.5C248 563.675 247.55 563 247 563C246.45 563 246 563.675 246 564.5ZM250 564.5C250 565.325 250.45 566 251 566C251.55 566 252 565.325 252 564.5C252 563.675 251.55 563 251 563C250.45 563 250 563.675 250 564.5ZM258 564.5C258 565.325 258.45 566 259 566C259.55 566 260 565.325 260 564.5C260 563.675 259.55 563 259 563C258.45 563 258 563.675 258 564.5ZM261.543 563.931C261.226 564.443 261.425 565.144 261.984 565.49C262.543 565.835 263 565.416 263 564.559C263 562.802 262.4 562.544 261.543 563.931ZM480.344 564.262C481.836 565.354 482.031 567.078 481.785 577.012L481.5 588.5H471.5H461.5L461.214 577.514C461.056 571.471 460.494 566.094 459.964 565.564C459.434 565.034 459 564.24 459 563.8C459 562.438 478.424 562.858 480.344 564.262ZM567.968 563.75C567.951 564.163 567.276 565.374 566.468 566.441C565.398 567.856 565 571.175 565 578.691V589H555H545V576.583C545 567.586 545.344 564.028 546.25 563.662C548.267 562.848 568.003 562.928 567.968 563.75ZM730 564C730 564.55 730.9 565 732 565C733.1 565 734 564.55 734 564C734 563.45 733.1 563 732 563C730.9 563 730 563.45 730 564ZM737 564C737 564.55 737.45 565 738 565C738.55 565 739 564.55 739 564C739 563.45 738.55 563 738 563C737.45 563 737 563.45 737 564ZM745 564C745 564.55 747.025 565 749.5 565C751.975 565 754 564.55 754 564C754 563.45 751.975 563 749.5 563C747.025 563 745 563.45 745 564ZM758 564C758 564.55 758.675 565 759.5 565C760.325 565 761 564.55 761 564C761 563.45 760.325 563 759.5 563C758.675 563 758 563.45 758 564ZM763.5 564C763.16 564.55 763.584 565 764.441 565C765.298 565 766 564.55 766 564C766 563.45 765.577 563 765.059 563C764.541 563 763.84 563.45 763.5 564ZM971 568.941C971 569.459 971.45 570.16 972 570.5C972.55 570.84 973 570.416 973 569.559C973 568.702 972.55 568 972 568C971.45 568 971 568.423 971 568.941ZM975 569C975 569.55 975.45 570 976 570C976.55 570 977 569.55 977 569C977 568.45 976.55 568 976 568C975.45 568 975 568.45 975 569ZM449.749 622.685C449.585 632.483 449.451 624.75 449.45 605.5C449.45 586.25 449.584 578.233 449.748 587.685C449.912 597.138 449.913 612.888 449.749 622.685ZM492 574.941C492 576.009 492.45 577.16 493 577.5C493.567 577.851 494 577.01 494 575.559C494 574.152 493.55 573 493 573C492.45 573 492 573.873 492 574.941ZM498 575.5C498 576.875 498.45 578 499 578C499.55 578 500 576.875 500 575.5C500 574.125 499.55 573 499 573C498.45 573 498 574.125 498 575.5ZM510 575.559C510 577.01 510.433 577.851 511 577.5C511.55 577.16 512 576.009 512 574.941C512 573.873 511.55 573 511 573C510.45 573 510 574.152 510 575.559ZM515 575.5C515 576.875 515.45 578 516 578C516.55 578 517 576.875 517 575.5C517 574.125 516.55 573 516 573C515.45 573 515 574.125 515 575.5ZM527 575C527 576.1 527.45 577 528 577C528.55 577 529 576.1 529 575C529 573.9 528.55 573 528 573C527.45 573 527 573.9 527 575ZM532 574.941C532 576.009 532.45 577.16 533 577.5C533.567 577.851 534 577.01 534 575.559C534 574.152 533.55 573 533 573C532.45 573 532 573.873 532 574.941ZM719 576C719 576.55 720.575 577 722.5 577C724.425 577 726 576.55 726 576C726 575.45 724.425 575 722.5 575C720.575 575 719 575.45 719 576ZM769 576C769 576.55 769.9 577 771 577C772.1 577 773 576.55 773 576C773 575.45 772.1 575 771 575C769.9 575 769 575.45 769 576ZM990 576.5C990 577.325 990.45 578 991 578C991.55 578 992 577.325 992 576.5C992 575.675 991.55 575 991 575C990.45 575 990 575.675 990 576.5ZM1002 576.5C1002 577.325 1002.45 578 1003 578C1003.55 578 1004 577.325 1004 576.5C1004 575.675 1003.55 575 1003 575C1002.45 575 1002 575.675 1002 576.5ZM1017.69 575.639C1016.56 576.773 1018.05 578 1020.56 578C1022.06 578 1023 577.424 1023 576.5C1023 575.003 1018.98 574.352 1017.69 575.639ZM234 580.941C234 581.459 234.45 582.16 235 582.5C235.55 582.84 236 582.416 236 581.559C236 580.702 235.55 580 235 580C234.45 580 234 580.423 234 580.941ZM238 581.559C238 582.416 238.45 582.84 239 582.5C239.55 582.16 240 581.459 240 580.941C240 580.423 239.55 580 239 580C238.45 580 238 580.702 238 581.559ZM246 581.5C246 582.325 246.45 583 247 583C247.55 583 248 582.325 248 581.5C248 580.675 247.55 580 247 580C246.45 580 246 580.675 246 581.5ZM250 581.5C250 582.325 250.45 583 251 583C251.55 583 252 582.325 252 581.5C252 580.675 251.55 580 251 580C250.45 580 250 580.675 250 581.5ZM258 581.5C258 582.325 258.45 583 259 583C259.55 583 260 582.325 260 581.5C260 580.675 259.55 580 259 580C258.45 580 258 580.675 258 581.5ZM262.079 581.583C262.127 582.748 262.364 582.985 262.683 582.188C262.972 581.466 262.936 580.603 262.604 580.271C262.272 579.939 262.036 580.529 262.079 581.583ZM719.531 580.95C718.766 582.187 721.151 583.321 723.494 582.835C724.381 582.651 725.096 582.05 725.084 581.5C725.054 580.112 720.338 579.645 719.531 580.95ZM744 581.43C744 582.451 744.903 583 746.583 583C749.716 583 749.373 580.652 746.172 580.18C744.729 579.968 744 580.388 744 581.43ZM769.625 580.708C769.311 581.022 769.294 581.666 769.586 582.139C770.288 583.275 773 583.25 773 582.107C773 581.003 770.405 579.928 769.625 580.708ZM492.667 583.667C491.629 584.704 491.883 588 493 588C493.55 588 494 586.875 494 585.5C494 582.882 493.769 582.564 492.667 583.667ZM498 585.5C498 586.875 498.45 588 499 588C499.55 588 500 586.875 500 585.5C500 584.125 499.55 583 499 583C498.45 583 498 584.125 498 585.5ZM510 585.5C510 586.875 510.45 588 511 588C511.55 588 512 586.875 512 585.5C512 584.125 511.55 583 511 583C510.45 583 510 584.125 510 585.5ZM515 585.5C515 586.875 515.45 588 516 588C516.55 588 517 586.875 517 585.5C517 584.125 516.55 583 516 583C515.45 583 515 584.125 515 585.5ZM527 585.441C527 586.848 527.45 588 528 588C528.55 588 529 587.127 529 586.059C529 584.991 528.55 583.84 528 583.5C527.433 583.149 527 583.99 527 585.441ZM532.667 583.667C531.629 584.704 531.883 588 533 588C533.55 588 534 586.875 534 585.5C534 582.882 533.769 582.564 532.667 583.667ZM967 584C967 584.55 968.575 585 970.5 585C972.425 585 974 584.55 974 584C974 583.45 972.425 583 970.5 583C968.575 583 967 583.45 967 584ZM978 584C978 584.55 978.45 585 979 585C979.55 585 980 584.55 980 584C980 583.45 979.55 583 979 583C978.45 583 978 583.45 978 584ZM981 584C981 584.55 981.675 585 982.5 585C983.325 585 984 584.55 984 584C984 583.45 983.325 583 982.5 583C981.675 583 981 583.45 981 584ZM989 584C989 584.55 989.45 585 990 585C990.55 585 991 584.55 991 584C991 583.45 990.55 583 990 583C989.45 583 989 583.45 989 584ZM994 584C994 584.55 994.675 585 995.5 585C996.325 585 997 584.55 997 584C997 583.45 996.325 583 995.5 583C994.675 583 994 583.45 994 584ZM998 584C998 584.55 998.9 585 1000 585C1001.1 585 1002 584.55 1002 584C1002 583.45 1001.1 583 1000 583C998.9 583 998 583.45 998 584ZM1012.5 584C1012.84 584.55 1013.54 585 1014.06 585C1014.58 585 1015 584.55 1015 584C1015 583.45 1014.3 583 1013.44 583C1012.58 583 1012.16 583.45 1012.5 584ZM967.5 591C967.84 591.55 968.541 592 969.059 592C969.577 592 970 591.55 970 591C970 590.45 969.298 590 968.441 590C967.584 590 967.16 590.45 967.5 591ZM1005 591C1005 591.55 1005.45 592 1006 592C1006.55 592 1007 591.55 1007 591C1007 590.45 1006.55 590 1006 590C1005.45 590 1005 590.45 1005 591ZM1010 591C1010 591.55 1011.12 592 1012.5 592C1013.88 592 1015 591.55 1015 591C1015 590.45 1013.88 590 1012.5 590C1011.12 590 1010 590.45 1010 591ZM1020 591C1020 591.55 1020.68 592 1021.5 592C1022.32 592 1023 591.55 1023 591C1023 590.45 1022.32 590 1021.5 590C1020.68 590 1020 590.45 1020 591ZM722 593C722 593.55 722.9 594 724 594C725.1 594 726 593.55 726 593C726 592.45 725.1 592 724 592C722.9 592 722 592.45 722 593ZM713.326 596.75C713.57 597.163 714.084 599.401 714.468 601.724L715.167 605.948L699.334 606.224L683.5 606.5L683 611.5L682.5 616.5H676.5H670.5L670.19 613.3C669.92 610.508 670.396 609.775 673.921 607.55C676.458 605.948 678.205 603.975 678.615 602.249C680.034 596.279 680.88 596 697.596 596C706.003 596 713.082 596.337 713.326 596.75ZM237.079 598.583C237.127 599.748 237.364 599.985 237.683 599.188C237.972 598.466 237.936 597.603 237.604 597.271C237.272 596.939 237.036 597.529 237.079 598.583ZM492 599.5C492 600.875 492.45 602 493 602C493.55 602 494 600.875 494 599.5C494 598.125 493.55 597 493 597C492.45 597 492 598.125 492 599.5ZM498 599.5C498 600.875 498.45 602 499 602C499.55 602 500 600.875 500 599.5C500 598.125 499.55 597 499 597C498.45 597 498 598.125 498 599.5ZM510 599.5C510 600.875 510.45 602 511 602C511.55 602 512 600.875 512 599.5C512 598.125 511.55 597 511 597C510.45 597 510 598.125 510 599.5ZM515 599.5C515 600.875 515.45 602 516 602C516.55 602 517 600.875 517 599.5C517 598.125 516.55 597 516 597C515.45 597 515 598.125 515 599.5ZM527 599.5C527 600.875 527.45 602 528 602C528.55 602 529 600.875 529 599.5C529 598.125 528.55 597 528 597C527.45 597 527 598.125 527 599.5ZM532 599.5C532 600.875 532.45 602 533 602C533.55 602 534 600.875 534 599.5C534 598.125 533.55 597 533 597C532.45 597 532 598.125 532 599.5ZM990 598C990 598.55 990.675 599 991.5 599C992.325 599 993 598.55 993 598C993 597.45 992.325 597 991.5 597C990.675 597 990 597.45 990 598ZM995 598C995 598.55 995.675 599 996.5 599C997.325 599 998 598.55 998 598C998 597.45 997.325 597 996.5 597C995.675 597 995 597.45 995 598ZM999 598C999 598.55 999.45 599 1000 599C1000.55 599 1001 598.55 1001 598C1001 597.45 1000.55 597 1000 597C999.45 597 999 597.45 999 598ZM133 642.5C133 671.181 133.352 687 133.989 687C134.623 687 135.073 671.46 135.239 643.833C135.441 610.376 135.781 600.573 136.75 600.25C137.666 599.945 138 601.595 138 606.417C138 610.139 138.435 613 139 613C139.564 613 140 610.167 140 606.5C140 602.833 140.436 600 141 600C141.564 600 142 602.833 142 606.5C142 610.167 142.436 613 143 613C143.564 613 144 610.167 144 606.5C144 602.833 144.436 600 145 600C145.564 600 146 602.833 146 606.5C146 610.167 146.436 613 147 613C147.564 613 148 610.167 148 606.5C148 602.833 148.436 600 149 600C149.556 600 150 602.667 150 606C150 609.333 150.444 612 151 612C151.556 612 152 609.333 152 606C152 602.667 152.444 600 153 600C153.564 600 154 602.833 154 606.5C154 610.167 154.436 613 155 613C155.564 613 156 610.167 156 606.5C156 602.833 156.436 600 157 600C157.564 600 158 602.833 158 606.5C158 610.167 158.436 613 159 613C159.564 613 160 610.167 160 606.5C160 602.833 160.436 600 161 600C161.564 600 162 602.833 162 606.5C162 610.167 162.436 613 163 613C163.564 613 164 610.167 164 606.5C164 602.833 164.436 600 165 600C165.564 600 166 602.833 166 606.5C166 610.167 166.436 613 167 613C167.564 613 168 610.167 168 606.5C168 602.833 168.436 600 169 600C169.651 600 170 615.167 170 643.5C170 671.833 170.349 687 171 687C171.652 687 172 671.5 172 642.5V598H152.5H133V642.5ZM246 599.5C246 600.325 246.45 601 247 601C247.55 601 248 600.325 248 599.5C248 598.675 247.55 598 247 598C246.45 598 246 598.675 246 599.5ZM250 599.5C250 600.325 250.45 601 251 601C251.55 601 252 600.325 252 599.5C252 598.675 251.55 598 251 598C250.45 598 250 598.675 250 599.5ZM723.5 599C723.16 599.55 723.61 600 724.5 600C725.39 600 725.84 599.55 725.5 599C725.16 598.45 724.71 598 724.5 598C724.29 598 723.84 598.45 723.5 599ZM223.531 602.293C223.103 603.279 223.034 604.367 223.376 604.71C224.392 605.725 225.211 604.299 224.743 602.328C224.329 600.581 224.275 600.58 223.531 602.293ZM190 603.5C190 604.325 190.45 605 191 605C191.55 605 192 604.325 192 603.5C192 602.675 191.55 602 191 602C190.45 602 190 602.675 190 603.5ZM194 603.5C194 604.325 194.45 605 195 605C195.55 605 196 604.325 196 603.5C196 602.675 195.55 602 195 602C194.45 602 194 602.675 194 603.5ZM203 603.5C203 604.325 203.45 605 204 605C204.55 605 205 604.325 205 603.5C205 602.675 204.55 602 204 602C203.45 602 203 602.675 203 603.5ZM207 603.5C207 604.325 207.45 605 208 605C208.55 605 209 604.325 209 603.5C209 602.675 208.55 602 208 602C207.45 602 207 602.675 207 603.5ZM210 603.5C210 604.325 210.45 605 211 605C211.55 605 212 604.325 212 603.5C212 602.675 211.55 602 211 602C210.45 602 210 602.675 210 603.5ZM219 603.5C219 604.325 219.45 605 220 605C220.55 605 221 604.325 221 603.5C221 602.675 220.55 602 220 602C219.45 602 219 602.675 219 603.5ZM741 605C741 605.55 742.125 606 743.5 606C744.875 606 746 605.55 746 605C746 604.45 744.875 604 743.5 604C742.125 604 741 604.45 741 605ZM748 605C748 605.55 748.675 606 749.5 606C750.325 606 751 605.55 751 605C751 604.45 750.325 604 749.5 604C748.675 604 748 604.45 748 605ZM975 605C975 605.55 975.45 606 976 606C976.55 606 977 605.55 977 605C977 604.45 976.55 604 976 604C975.45 604 975 604.45 975 605ZM723 606C723 606.55 723.675 607 724.5 607C725.325 607 726 606.55 726 606C726 605.45 725.325 605 724.5 605C723.675 605 723 605.45 723 606ZM492.548 608.25C492.129 609.212 492.129 610.788 492.548 611.75C493.273 613.417 493.329 613.417 493.728 611.75C493.958 610.788 493.958 609.212 493.728 608.25C493.329 606.583 493.273 606.583 492.548 608.25ZM498 610C498 611.65 498.45 613 499 613C499.55 613 500 611.65 500 610C500 608.35 499.55 607 499 607C498.45 607 498 608.35 498 610ZM510 610.059C510 611.844 510.417 612.861 511 612.5C511.55 612.16 512 610.784 512 609.441C512 608.098 511.55 607 511 607C510.45 607 510 608.377 510 610.059ZM515 610C515 611.65 515.45 613 516 613C516.55 613 517 611.65 517 610C517 608.35 516.55 607 516 607C515.45 607 515 608.35 515 610ZM527 610C527 611.824 527.415 612.862 528 612.5C528.55 612.16 529 611.035 529 610C529 608.965 528.55 607.84 528 607.5C527.415 607.138 527 608.176 527 610ZM532.548 608.25C532.129 609.212 532.129 610.788 532.548 611.75C533.273 613.417 533.329 613.417 533.728 611.75C533.958 610.788 533.958 609.212 533.728 608.25C533.329 606.583 533.273 606.583 532.548 608.25ZM544.639 608.694C543.444 609.889 543.994 612 545.5 612C546.325 612 547 611.352 547 610.559C547 608.888 545.573 607.761 544.639 608.694ZM719.876 612.5C720.637 614.7 721.544 618.075 721.893 620C722.52 623.465 722.583 623.503 728.166 623.797C734.62 624.137 734.421 623.815 735.566 635.765L736.261 643.029L705.381 642.765L674.5 642.5V633V623.5L679.147 623.199C684.269 622.868 684.96 621.877 684.986 614.832C685.013 607.705 684.445 607.921 702.363 608.226L718.493 608.5L719.876 612.5ZM550 610.5C550 611.325 550.45 612 551 612C551.55 612 552 611.325 552 610.5C552 609.675 551.55 609 551 609C550.45 609 550 609.675 550 610.5ZM967 612C967 612.55 967.675 613 968.5 613C969.325 613 970 612.55 970 612C970 611.45 969.325 611 968.5 611C967.675 611 967 611.45 967 612ZM981 612C981 612.55 981.45 613 982 613C982.55 613 983 612.55 983 612C983 611.45 982.55 611 982 611C981.45 611 981 611.45 981 612ZM989 612C989 612.55 989.9 613 991 613C992.1 613 993 612.55 993 612C993 611.45 992.1 611 991 611C989.9 611 989 611.45 989 612ZM995 612C995 612.55 995.675 613 996.5 613C997.325 613 998 612.55 998 612C998 611.45 997.325 611 996.5 611C995.675 611 995 611.45 995 612ZM922.541 630.56L929.721 648.5L915.111 649C907.075 649.275 900.32 649.395 900.1 649.267C899.881 649.139 901.869 643.289 904.518 636.267C907.167 629.245 910.272 620.912 911.417 617.75C912.562 614.587 913.918 612.139 914.429 612.31C914.941 612.48 918.591 620.693 922.541 630.56ZM492 620.5C492 621.875 492.45 623 493 623C493.55 623 494 621.875 494 620.5C494 619.125 493.55 618 493 618C492.45 618 492 619.125 492 620.5ZM498 620.5C498 621.875 498.45 623 499 623C499.55 623 500 621.875 500 620.5C500 619.125 499.55 618 499 618C498.45 618 498 619.125 498 620.5ZM510 620.5C510 621.875 510.45 623 511 623C511.55 623 512 621.875 512 620.5C512 619.125 511.55 618 511 618C510.45 618 510 619.125 510 620.5ZM515 620.5C515 621.875 515.45 623 516 623C516.55 623 517 621.875 517 620.5C517 619.125 516.55 618 516 618C515.45 618 515 619.125 515 620.5ZM527 620.5C527 621.875 527.45 623 528 623C528.55 623 529 621.875 529 620.5C529 619.125 528.55 618 528 618C527.45 618 527 619.125 527 620.5ZM532 620.5C532 621.875 532.45 623 533 623C533.55 623 534 621.875 534 620.5C534 619.125 533.55 618 533 618C532.45 618 532 619.125 532 620.5ZM996 619.5C996 620.325 996.45 621 997 621C997.55 621 998 620.325 998 619.5C998 618.675 997.55 618 997 618C996.45 618 996 618.675 996 619.5ZM190 620.5C190 621.325 190.45 622 191 622C191.55 622 192 621.325 192 620.5C192 619.675 191.55 619 191 619C190.45 619 190 619.675 190 620.5ZM194 620.5C194 621.325 194.45 622 195 622C195.55 622 196 621.325 196 620.5C196 619.675 195.55 619 195 619C194.45 619 194 619.675 194 620.5ZM203 620.5C203 621.325 203.45 622 204 622C204.55 622 205 621.325 205 620.5C205 619.675 204.55 619 204 619C203.45 619 203 619.675 203 620.5ZM207 620.5C207 621.325 207.45 622 208 622C208.55 622 209 621.325 209 620.5C209 619.675 208.55 619 208 619C207.45 619 207 619.675 207 620.5ZM210 620.5C210 621.325 210.45 622 211 622C211.55 622 212 621.325 212 620.5C212 619.675 211.55 619 211 619C210.45 619 210 619.675 210 620.5ZM219 620.5C219 621.325 219.45 622 220 622C220.55 622 221 621.325 221 620.5C221 619.675 220.55 619 220 619C219.45 619 219 619.675 219 620.5ZM223 620.5C223 621.325 223.45 622 224 622C224.55 622 225 621.325 225 620.5C225 619.675 224.55 619 224 619C223.45 619 223 619.675 223 620.5ZM272 620.5C272 621.325 272.45 622 273 622C273.55 622 274 621.325 274 620.5C274 619.675 273.55 619 273 619C272.45 619 272 619.675 272 620.5ZM277 620.5C277 621.325 277.45 622 278 622C278.55 622 279 621.325 279 620.5C279 619.675 278.55 619 278 619C277.45 619 277 619.675 277 620.5ZM285 620.5C285 621.325 285.45 622 286 622C286.55 622 287 621.325 287 620.5C287 619.675 286.55 619 286 619C285.45 619 285 619.675 285 620.5ZM289 620.5C289 621.325 289.45 622 290 622C290.55 622 291 621.325 291 620.5C291 619.675 290.55 619 290 619C289.45 619 289 619.675 289 620.5ZM293 620.5C293 621.325 293.45 622 294 622C294.55 622 295 621.325 295 620.5C295 619.675 294.55 619 294 619C293.45 619 293 619.675 293 620.5ZM303 620.5C303 621.325 303.675 622 304.5 622C305.325 622 306 621.325 306 620.5C306 619.675 305.325 619 304.5 619C303.675 619 303 619.675 303 620.5ZM237.583 621.866C237.152 622.563 237.07 623.403 237.4 623.733C238.295 624.628 239.271 623.312 238.787 621.862C238.449 620.846 238.213 620.846 237.583 621.866ZM246 622.5C246 623.325 246.45 624 247 624C247.55 624 248 623.325 248 622.5C248 621.675 247.55 621 247 621C246.45 621 246 621.675 246 622.5ZM250 622.5C250 623.325 250.45 624 251 624C251.55 624 252 623.325 252 622.5C252 621.675 251.55 621 251 621C250.45 621 250 621.675 250 622.5ZM258 622.5C258 623.325 258.45 624 259 624C259.55 624 260 623.325 260 622.5C260 621.675 259.55 621 259 621C258.45 621 258 621.675 258 622.5ZM261.583 621.866C261.152 622.563 261.07 623.403 261.4 623.733C262.295 624.628 263.271 623.312 262.787 621.862C262.449 620.846 262.213 620.846 261.583 621.866ZM846 628C846 629.111 846.667 630 847.5 630C848.333 630 849 629.111 849 628C849 626.889 848.333 626 847.5 626C846.667 626 846 626.889 846 628ZM301 628C301 628.55 301.45 629 302 629C302.55 629 303 628.55 303 628C303 627.45 302.55 627 302 627C301.45 627 301 627.45 301 628ZM305 628C305 628.55 305.477 629 306.059 629C306.641 629 306.84 628.55 306.5 628C306.16 627.45 305.684 627 305.441 627C305.198 627 305 627.45 305 628ZM814.525 627.96C813.677 629.332 814.428 630.362 815.905 629.854C816.511 629.646 816.588 628.94 816.093 628.143C815.468 627.137 815.063 627.09 814.525 627.96ZM492 631.5C492 632.875 492.45 634 493 634C493.55 634 494 632.875 494 631.5C494 630.125 493.55 629 493 629C492.45 629 492 630.125 492 631.5ZM498 631.5C498 632.875 498.45 634 499 634C499.55 634 500 632.875 500 631.5C500 630.125 499.55 629 499 629C498.45 629 498 630.125 498 631.5ZM510 631.5C510 632.875 510.45 634 511 634C511.55 634 512 632.875 512 631.5C512 630.125 511.55 629 511 629C510.45 629 510 630.125 510 631.5ZM515 631.5C515 632.875 515.45 634 516 634C516.55 634 517 632.875 517 631.5C517 630.125 516.55 629 516 629C515.45 629 515 630.125 515 631.5ZM527 631.5C527 632.875 527.45 634 528 634C528.55 634 529 632.875 529 631.5C529 630.125 528.55 629 528 629C527.45 629 527 630.125 527 631.5ZM532 631.5C532 632.875 532.45 634 533 634C533.55 634 534 632.875 534 631.5C534 630.125 533.55 629 533 629C532.45 629 532 630.125 532 631.5ZM469 631.5C469 632.325 469.45 633 470 633C470.55 633 471 632.325 471 631.5C471 630.675 470.55 630 470 630C469.45 630 469 630.675 469 631.5ZM475 631.5C475 632.325 475.45 633 476 633C476.55 633 477 632.325 477 631.5C477 630.675 476.55 630 476 630C475.45 630 475 630.675 475 631.5ZM481 631.5C481 632.325 481.45 633 482 633C482.55 633 483 632.325 483 631.5C483 630.675 482.55 630 482 630C481.45 630 481 630.675 481 631.5ZM544 631.5C544 632.325 544.675 633 545.5 633C546.325 633 547 632.325 547 631.5C547 630.675 546.325 630 545.5 630C544.675 630 544 630.675 544 631.5ZM550 631.5C550 632.325 550.675 633 551.5 633C552.325 633 553 632.325 553 631.5C553 630.675 552.325 630 551.5 630C550.675 630 550 630.675 550 631.5ZM556 631.5C556 632.325 556.675 633 557.5 633C558.325 633 559 632.325 559 631.5C559 630.675 558.325 630 557.5 630C556.675 630 556 630.675 556 631.5ZM1005 633.5C1005 634.325 1005.68 635 1006.5 635C1007.32 635 1008 634.325 1008 633.5C1008 632.675 1007.32 632 1006.5 632C1005.68 632 1005 632.675 1005 633.5ZM1009 633.5C1009 634.417 1009.48 635.005 1010.08 634.808C1010.67 634.611 1011.15 634.023 1011.15 633.5C1011.15 632.977 1010.67 632.389 1010.08 632.192C1009.48 631.995 1009 632.583 1009 633.5ZM1013 633.5C1013 634.325 1013.45 635 1014 635C1014.55 635 1015 634.325 1015 633.5C1015 632.675 1014.55 632 1014 632C1013.45 632 1013 632.675 1013 633.5ZM156.079 635.583C156.127 636.748 156.364 636.985 156.683 636.188C156.972 635.466 156.936 634.603 156.604 634.271C156.272 633.939 156.036 634.529 156.079 635.583ZM138 636.059C138 636.641 138.45 636.84 139 636.5C139.55 636.16 140 635.684 140 635.441C140 635.198 139.55 635 139 635C138.45 635 138 635.477 138 636.059ZM144.5 636C144.84 636.55 145.316 637 145.559 637C145.802 637 146 636.55 146 636C146 635.45 145.523 635 144.941 635C144.359 635 144.16 635.45 144.5 636ZM161 636C161 636.55 161.45 637 162 637C162.55 637 163 636.55 163 636C163 635.45 162.55 635 162 635C161.45 635 161 635.45 161 636ZM190 637.5C190 638.325 190.45 639 191 639C191.55 639 192 638.325 192 637.5C192 636.675 191.55 636 191 636C190.45 636 190 636.675 190 637.5ZM194 637.5C194 638.325 194.45 639 195 639C195.55 639 196 638.325 196 637.5C196 636.675 195.55 636 195 636C194.45 636 194 636.675 194 637.5ZM207 637.559C207 638.416 207.45 638.84 208 638.5C208.55 638.16 209 637.459 209 636.941C209 636.423 208.55 636 208 636C207.45 636 207 636.702 207 637.559ZM210 637.5C210 638.325 210.45 639 211 639C211.55 639 212 638.325 212 637.5C212 636.675 211.55 636 211 636C210.45 636 210 636.675 210 637.5ZM219 637.383C219 639.131 225.171 638.986 225.759 637.223C226.03 636.411 224.964 636 222.583 636C220.2 636 219 636.463 219 637.383ZM272.244 637.231C272.866 639.098 279 639.332 279 637.488C279 636.448 277.922 636 275.417 636C273.025 636 271.97 636.409 272.244 637.231ZM285 637.5C285 638.325 285.45 639 286 639C286.55 639 287 638.325 287 637.5C287 636.675 286.55 636 286 636C285.45 636 285 636.675 285 637.5ZM289 637.5C289 638.325 289.45 639 290 639C290.55 639 291 638.325 291 637.5C291 636.675 290.55 636 290 636C289.45 636 289 636.675 289 637.5ZM293 637.5C293 638.325 293.45 639 294 639C294.55 639 295 638.325 295 637.5C295 636.675 294.55 636 294 636C293.45 636 293 636.675 293 637.5ZM825.531 638.293C825.103 639.279 825.034 640.367 825.376 640.71C826.392 641.725 827.211 640.299 826.743 638.328C826.329 636.581 826.275 636.58 825.531 638.293ZM237.543 638.931C237.226 639.443 237.425 640.144 237.984 640.49C238.543 640.835 239 640.416 239 639.559C239 637.802 238.4 637.544 237.543 638.931ZM492.548 640.25C492.129 641.212 492.129 642.788 492.548 643.75C493.273 645.417 493.329 645.417 493.728 643.75C493.958 642.788 493.958 641.212 493.728 640.25C493.329 638.583 493.273 638.583 492.548 640.25ZM498 642C498 643.65 498.45 645 499 645C499.55 645 500 643.65 500 642C500 640.35 499.55 639 499 639C498.45 639 498 640.35 498 642ZM510 641.941C510 643.623 510.45 645 511 645C511.55 645 512 643.902 512 642.559C512 641.216 511.55 639.84 511 639.5C510.417 639.139 510 640.156 510 641.941ZM515 642C515 643.65 515.45 645 516 645C516.55 645 517 643.65 517 642C517 640.35 516.55 639 516 639C515.45 639 515 640.35 515 642ZM527 641.941C527 643.623 527.45 645 528 645C528.55 645 529 643.902 529 642.559C529 641.216 528.55 639.84 528 639.5C527.417 639.139 527 640.156 527 641.941ZM532.667 639.667C531.62 640.714 531.888 645 533 645C533.55 645 534 643.65 534 642C534 638.893 533.796 638.537 532.667 639.667ZM544 642.5C544 643.325 544.675 644 545.5 644C546.325 644 547 643.325 547 642.5C547 641.675 546.325 641 545.5 641C544.675 641 544 641.675 544 642.5ZM550 642.5C550 643.325 550.45 644 551 644C551.55 644 552 643.325 552 642.5C552 641.675 551.55 641 551 641C550.45 641 550 641.675 550 642.5ZM246 646.5C246 647.325 246.45 648 247 648C247.55 648 248 647.325 248 646.5C248 645.675 247.55 645 247 645C246.45 645 246 645.675 246 646.5ZM250 646.5C250 647.325 250.45 648 251 648C251.55 648 252 647.325 252 646.5C252 645.675 251.55 645 251 645C250.45 645 250 645.675 250 646.5ZM258.583 645.866C258.152 646.563 258.07 647.403 258.4 647.733C259.295 648.628 260.271 647.312 259.787 645.862C259.449 644.846 259.213 644.846 258.583 645.866ZM237 646.941C237 647.459 237.45 648.16 238 648.5C238.55 648.84 239 648.416 239 647.559C239 646.702 238.55 646 238 646C237.45 646 237 646.423 237 646.941ZM492 652.5C492 653.875 492.45 655 493 655C493.55 655 494 653.875 494 652.5C494 651.125 493.55 650 493 650C492.45 650 492 651.125 492 652.5ZM498 652.5C498 653.875 498.45 655 499 655C499.55 655 500 653.875 500 652.5C500 651.125 499.55 650 499 650C498.45 650 498 651.125 498 652.5ZM510 652.5C510 653.875 510.45 655 511 655C511.55 655 512 653.875 512 652.5C512 651.125 511.55 650 511 650C510.45 650 510 651.125 510 652.5ZM515 652.5C515 653.875 515.45 655 516 655C516.55 655 517 653.875 517 652.5C517 651.125 516.55 650 516 650C515.45 650 515 651.125 515 652.5ZM527 652.5C527 653.875 527.45 655 528 655C528.55 655 529 653.875 529 652.5C529 651.125 528.55 650 528 650C527.45 650 527 651.125 527 652.5ZM532 652.5C532 653.875 532.45 655 533 655C533.55 655 534 653.875 534 652.5C534 651.125 533.55 650 533 650C532.45 650 532 651.125 532 652.5ZM906 664.822V677.527L901.25 678.676C898.638 679.308 895.712 680.138 894.75 680.52C893.14 681.158 893 680.222 893 668.823V656.431L896.093 654.604C899.623 652.519 904.144 651.086 905.25 651.701C905.663 651.93 906 657.835 906 664.822ZM934 664.5V678H921H908V664.5V651H921H934V664.5ZM272 653.5C272 654.325 272.45 655 273 655C273.55 655 274 654.325 274 653.5C274 652.675 273.55 652 273 652C272.45 652 272 652.675 272 653.5ZM277 653.5C277 654.325 277.45 655 278 655C278.55 655 279 654.325 279 653.5C279 652.675 278.55 652 278 652C277.45 652 277 652.675 277 653.5ZM285 653.5C285 654.325 285.45 655 286 655C286.55 655 287 654.325 287 653.5C287 652.675 286.55 652 286 652C285.45 652 285 652.675 285 653.5ZM289 653.5C289 654.325 289.45 655 290 655C290.55 655 291 654.325 291 653.5C291 652.675 290.55 652 290 652C289.45 652 289 652.675 289 653.5ZM293 653.5C293 654.325 293.45 655 294 655C294.55 655 295 654.325 295 653.5C295 652.675 294.55 652 294 652C293.45 652 293 652.675 293 653.5ZM683 670C683 680.667 683.373 687 684 687C684.627 687 685 680.667 685 670C685 659.333 684.627 653 684 653C683.373 653 683 659.333 683 670ZM697 670C697 680.667 697.373 687 698 687C698.627 687 699 680.667 699 670C699 659.333 698.627 653 698 653C697.373 653 697 659.333 697 670ZM711 670C711 680.667 711.373 687 712 687C712.627 687 713 680.667 713 670C713 659.333 712.627 653 712 653C711.373 653 711 659.333 711 670ZM724.432 654.316C724.155 655.04 724.056 662.54 724.214 670.984C724.422 682.167 724.839 686.449 725.75 686.751C726.717 687.073 727 683.305 727 670.083C727 659.015 726.637 653 725.969 653C725.401 653 724.71 653.592 724.432 654.316ZM492 663.5C492 664.875 492.45 666 493 666C493.55 666 494 664.875 494 663.5C494 662.125 493.55 661 493 661C492.45 661 492 662.125 492 663.5ZM498 663.5C498 664.875 498.45 666 499 666C499.55 666 500 664.875 500 663.5C500 662.125 499.55 661 499 661C498.45 661 498 662.125 498 663.5ZM510 663.5C510 664.875 510.45 666 511 666C511.55 666 512 664.875 512 663.5C512 662.125 511.55 661 511 661C510.45 661 510 662.125 510 663.5ZM515 663.5C515 664.875 515.45 666 516 666C516.55 666 517 664.875 517 663.5C517 662.125 516.55 661 516 661C515.45 661 515 662.125 515 663.5ZM527 663.5C527 664.875 527.45 666 528 666C528.55 666 529 664.875 529 663.5C529 662.125 528.55 661 528 661C527.45 661 527 662.125 527 663.5ZM532 663.5C532 664.875 532.45 666 533 666C533.55 666 534 664.875 534 663.5C534 662.125 533.55 661 533 661C532.45 661 532 662.125 532 663.5ZM81 664.5C81 665.325 81.45 666 82 666C82.55 666 83 665.325 83 664.5C83 663.675 82.55 663 82 663C81.45 663 81 663.675 81 664.5ZM321.562 669.75C321.233 673.462 320.744 678.862 320.474 681.75C319.976 687.07 321.003 688.54 322.92 685.25C323.891 683.583 323.941 683.583 323.97 685.25C323.986 686.212 324.422 687 324.937 687C325.453 687 325.689 685.538 325.463 683.75C325.236 681.962 324.774 676.563 324.436 671.75C324.097 666.938 323.447 663 322.99 663C322.533 663 321.89 666.038 321.562 669.75ZM190 669C190 670.1 190.45 671 191 671C191.55 671 192 670.1 192 669C192 667.9 191.55 667 191 667C190.45 667 190 667.9 190 669ZM194.531 668.293C194.103 669.279 194.034 670.367 194.376 670.71C195.392 671.725 196.211 670.299 195.743 668.328C195.329 666.581 195.275 666.58 194.531 668.293ZM203 669C203 670.1 203.45 671 204 671C204.55 671 205 670.1 205 669C205 667.9 204.55 667 204 667C203.45 667 203 667.9 203 669ZM207 669C207 670.867 207.267 671.133 208.2 670.2C209.133 669.267 209.133 668.733 208.2 667.8C207.267 666.867 207 667.133 207 669ZM210 669C210 670.1 210.45 671 211 671C211.55 671 212 670.1 212 669C212 667.9 211.55 667 211 667C210.45 667 210 667.9 210 669ZM219 669C219 670.1 219.45 671 220 671C220.55 671 221 670.1 221 669C221 667.9 220.55 667 220 667C219.45 667 219 667.9 219 669ZM223.446 668.087C223.077 668.685 223.275 669.675 223.887 670.287C224.704 671.104 225 670.815 225 669.2C225 666.785 224.481 666.413 223.446 668.087ZM250 671.5C250 672.325 250.45 673 251 673C251.55 673 252 672.325 252 671.5C252 670.675 251.55 670 251 670C250.45 670 250 670.675 250 671.5ZM258 671.5C258 672.325 258.45 673 259 673C259.55 673 260 672.325 260 671.5C260 670.675 259.55 670 259 670C258.45 670 258 670.675 258 671.5ZM261.543 670.931C261.226 671.443 261.425 672.144 261.984 672.49C262.543 672.835 263 672.416 263 671.559C263 669.802 262.4 669.544 261.543 670.931ZM492.548 672.25C492.129 673.212 492.129 674.788 492.548 675.75C493.273 677.417 493.329 677.417 493.728 675.75C493.958 674.788 493.958 673.212 493.728 672.25C493.329 670.583 493.273 670.583 492.548 672.25ZM498 674C498 675.65 498.45 677 499 677C499.55 677 500 675.65 500 674C500 672.35 499.55 671 499 671C498.45 671 498 672.35 498 674ZM510 674C510 675.65 510.45 677 511 677C511.55 677 512 675.65 512 674C512 672.35 511.55 671 511 671C510.45 671 510 672.35 510 674ZM515 674C515 675.65 515.45 677 516 677C516.55 677 517 675.65 517 674C517 672.35 516.55 671 516 671C515.45 671 515 672.35 515 674ZM527 674C527 675.824 527.415 676.862 528 676.5C528.55 676.16 529 675.035 529 674C529 672.965 528.55 671.84 528 671.5C527.415 671.138 527 672.176 527 674ZM532.667 671.667C531.62 672.714 531.888 677 533 677C533.55 677 534 675.65 534 674C534 670.893 533.796 670.537 532.667 671.667ZM795.531 674.293C795.103 675.279 795.034 676.367 795.376 676.71C796.392 677.725 797.211 676.299 796.743 674.328C796.329 672.581 796.275 672.58 795.531 674.293ZM805 675.5C805 676.325 805.45 677 806 677C806.55 677 807 676.325 807 675.5C807 674.675 806.55 674 806 674C805.45 674 805 674.675 805 675.5ZM815 675.5C815 676.325 815.45 677 816 677C816.55 677 817 676.325 817 675.5C817 674.675 816.55 674 816 674C815.45 674 815 674.675 815 675.5ZM845 675.5C845 676.325 845.45 677 846 677C846.55 677 847 676.325 847 675.5C847 674.675 846.55 674 846 674C845.45 674 845 674.675 845 675.5ZM81 676.5C81 677.325 81.45 678 82 678C82.55 678 83 677.325 83 676.5C83 675.675 82.55 675 82 675C81.45 675 81 675.675 81 676.5ZM763 676.5C763 677.664 763.727 678.042 765.531 677.816C766.923 677.642 768.062 677.05 768.062 676.5C768.062 675.95 766.923 675.358 765.531 675.184C763.727 674.958 763 675.336 763 676.5ZM46.923 676.167C46.175 679.427 46.36 680 48.162 680C49.477 680 50.038 679.438 49.823 678.333C49.551 676.928 47.159 675.141 46.923 676.167ZM138 680C138 680.55 138.45 681 139 681C139.55 681 140 680.55 140 680C140 679.45 139.55 679 139 679C138.45 679 138 679.45 138 680ZM144 680C144 680.55 144.45 681 145 681C145.55 681 146 680.55 146 680C146 679.45 145.55 679 145 679C144.45 679 144 679.45 144 680ZM150 680C150 680.55 150.45 681 151 681C151.55 681 152 680.55 152 680C152 679.45 151.55 679 151 679C150.45 679 150 679.45 150 680ZM157 680C157 680.55 157.45 681 158 681C158.55 681 159 680.55 159 680C159 679.45 158.55 679 158 679C157.45 679 157 679.45 157 680ZM162 680C162 680.55 162.45 681 163 681C163.55 681 164 680.55 164 680C164 679.45 163.55 679 163 679C162.45 679 162 679.45 162 680ZM492 684.5C492 685.875 492.45 687 493 687C493.55 687 494 685.875 494 684.5C494 683.125 493.55 682 493 682C492.45 682 492 683.125 492 684.5ZM498 684.5C498 685.875 498.45 687 499 687C499.55 687 500 685.875 500 684.5C500 683.125 499.55 682 499 682C498.45 682 498 683.125 498 684.5ZM510 684.5C510 685.875 510.45 687 511 687C511.55 687 512 685.875 512 684.5C512 683.125 511.55 682 511 682C510.45 682 510 683.125 510 684.5ZM515 684.5C515 685.875 515.45 687 516 687C516.55 687 517 685.875 517 684.5C517 683.125 516.55 682 516 682C515.45 682 515 683.125 515 684.5ZM527 684.5C527 685.875 527.45 687 528 687C528.55 687 529 685.875 529 684.5C529 683.125 528.55 682 528 682C527.45 682 527 683.125 527 684.5ZM532 684.5C532 685.875 532.45 687 533 687C533.55 687 534 685.875 534 684.5C534 683.125 533.55 682 533 682C532.45 682 532 683.125 532 684.5ZM795 685.5C795 686.325 795.45 687 796 687C796.55 687 797 686.325 797 685.5C797 684.675 796.55 684 796 684C795.45 684 795 684.675 795 685.5ZM805 685.5C805 686.325 805.45 687 806 687C806.55 687 807 686.325 807 685.5C807 684.675 806.55 684 806 684C805.45 684 805 684.675 805 685.5ZM815 685.5C815 686.325 815.45 687 816 687C816.55 687 817 686.325 817 685.5C817 684.675 816.55 684 816 684C815.45 684 815 684.675 815 685.5ZM825 685.5C825 686.325 825.45 687 826 687C826.55 687 827 686.325 827 685.5C827 684.675 826.55 684 826 684C825.45 684 825 684.675 825 685.5ZM835 685.5C835 686.325 835.45 687 836 687C836.55 687 837 686.325 837 685.5C837 684.675 836.55 684 836 684C835.45 684 835 684.675 835 685.5ZM845 685.5C845 686.325 845.45 687 846 687C846.55 687 847 686.325 847 685.5C847 684.675 846.55 684 846 684C845.45 684 845 684.675 845 685.5ZM855 685.441C855 686.298 855.45 687 856 687C856.55 687 857 686.577 857 686.059C857 685.541 856.55 684.84 856 684.5C855.45 684.16 855 684.584 855 685.441ZM865.079 685.583C865.127 686.748 865.364 686.985 865.683 686.188C865.972 685.466 865.936 684.603 865.604 684.271C865.272 683.939 865.036 684.529 865.079 685.583ZM39.269 686.693C40.242 686.947 41.592 686.93 42.269 686.656C42.946 686.382 42.15 686.175 40.5 686.195C38.85 686.215 38.296 686.439 39.269 686.693Z" fill="#FFFA74"/>
</svg>
